<?xml version="1.0" encoding="UTF-8"?>
<svg version="1.1" xmlns="http://www.w3.org/2000/svg" width="256" height="256">
<path d="M0 0 C84.48 0 168.96 0 256 0 C256 84.48 256 168.96 256 256 C171.52 256 87.04 256 0 256 C0 171.52 0 87.04 0 0 Z " fill="#19A0FB" transform="translate(0,0)"/>
<path d="M0 0 C3.46794061 1.38717625 6.36822015 2.67566638 9.5546875 4.50390625 C10.40998047 4.99318604 11.26527344 5.48246582 12.14648438 5.98657227 C13.04689453 6.50662842 13.94730469 7.02668457 14.875 7.5625 C16.2681543 8.36288696 16.2681543 8.36288696 17.68945312 9.17944336 C25.51813576 13.69064754 33.27626152 18.31200925 41 23 C41.87744873 23.42313477 42.75489746 23.84626953 43.65893555 24.28222656 C46 26 46 26 46.56762695 28.4519043 C46.54144287 29.39976807 46.51525879 30.34763184 46.48828125 31.32421875 C46.47216797 32.35224609 46.45605469 33.38027344 46.43945312 34.43945312 C46.39755859 35.51130859 46.35566406 36.58316406 46.3125 37.6875 C46.28994141 38.77095703 46.26738281 39.85441406 46.24414062 40.97070312 C46.1851579 43.64851905 46.10290307 46.32357027 46 49 C42.46255395 51.04564528 38.92452372 53.09027627 35.38598633 55.1340332 C34.18628732 55.82712481 32.98673882 56.520477 31.78735352 57.21411133 C30.62261612 57.8876651 29.45721003 58.56006393 28.29112244 59.23127747 C26.57906722 60.22313378 24.87747514 61.23297895 23.17602539 62.24291992 C20 64 20 64 17.18139648 65.0480957 C14.47540013 66.09406376 12.91528047 66.80730381 11 69 C9.74277322 74.27690479 9.83017488 79.43245353 9.9375 84.8125 C9.93442352 86.28321734 9.92730461 87.75393214 9.91601562 89.22460938 C9.89722194 92.81756463 9.93373628 96.40749187 10 100 C20.01502927 94.49466227 29.97014634 88.91586137 39.77905273 83.04931641 C44.89908199 80 44.89908199 80 46 80 C46 87.26 46 94.52 46 102 C44.33195312 102.95519531 42.66390625 103.91039062 40.9453125 104.89453125 C39.26815237 105.85781489 37.5910061 106.82112279 35.91415405 107.78494263 C34.72405589 108.46844673 33.53348535 109.151129 32.34243774 109.83297729 C26.30768129 113.28886777 20.29752431 116.76095363 14.44140625 120.515625 C13.22203369 121.29329224 13.22203369 121.29329224 11.97802734 122.08666992 C10.48244447 123.05030225 8.99647936 124.02907527 7.52197266 125.0246582 C5.51171875 126.31640625 5.51171875 126.31640625 2 128 C-1.71267383 126.88965698 -4.98959639 124.98501297 -8.359375 123.09375 C-9.38474365 122.51947266 -10.4101123 121.94519531 -11.46655273 121.35351562 C-12.55009033 120.74185547 -13.63362793 120.13019531 -14.75 119.5 C-15.86511963 118.87287109 -16.98023926 118.24574219 -18.12915039 117.59960938 C-36.96717279 106.97532829 -36.96717279 106.97532829 -42.98632812 103.12939453 C-45.04621814 101.89460106 -45.04621814 101.89460106 -47.66992188 101.08544922 C-50.95582534 99.74844645 -52.7240093 98.75081374 -55 96 C-56.71612232 89.60621387 -55.93149446 82.6620064 -55.625 76.125 C-55.57481223 74.27355684 -55.52918951 72.42198393 -55.48828125 70.5703125 C-55.38682003 66.0410837 -55.19140276 61.52986527 -55 57 C-48.73 57 -42.46 57 -36 57 C-36.22945312 58.84722656 -36.45890625 60.69445312 -36.6953125 62.59765625 C-37.2689239 70.26730348 -37.80253155 77.7101245 -35 85 C-28.13596586 92.3901521 -18.23455296 96.36741918 -9 100 C-6.91685146 82.48352189 -6.91685146 82.48352189 -11.91210938 66.46826172 C-16.50078391 62.73362182 -21.67432879 60.46231016 -27.27172852 58.63134766 C-28.1272229 58.31883057 -28.1272229 58.31883057 -29 58 C-29 57.67 -29 57.34 -29 57 C-19.43 57 -9.86 57 0 57 C0 55.68 0 54.36 0 53 C8.58 48.05 17.16 43.1 26 38 C22.54747064 35.23797651 19.68118387 33.10839826 15.91796875 30.984375 C14.52094727 30.19160156 14.52094727 30.19160156 13.09570312 29.3828125 C12.13599609 28.84398438 11.17628906 28.30515625 10.1875 27.75 C9.20845703 27.19570312 8.22941406 26.64140625 7.22070312 26.0703125 C4.81602036 24.70961396 2.40830709 23.35427348 0 22 C0 14.74 0 7.48 0 0 Z " fill="#FBFDFE" transform="translate(128,71)"/>
<path d="M0 0 C0.825 0.45375 1.65 0.9075 2.5 1.375 C3.79728279 1.84278618 3.79728279 1.84278618 5.12077332 2.32002258 C7.5 4.375 7.5 4.375 7.95144081 6.3717556 C8.11953415 9.13618759 8.11745327 11.86038428 8.06762695 14.62963867 C8.06835709 15.68346237 8.06908722 16.73728607 8.06983948 17.82304382 C8.06635025 21.31353863 8.02742387 24.80270647 7.98828125 28.29296875 C7.97895793 30.71006033 7.97183955 33.12716135 7.96684265 35.54426575 C7.94773528 41.911672 7.89860121 48.27850962 7.84332275 54.64569092 C7.79221148 61.14066881 7.76934592 67.63573842 7.74414062 74.13085938 C7.69048698 86.87914911 7.60608682 99.62704434 7.5 112.375 C6.7251123 112.81746567 5.95022461 113.25993134 5.15185547 113.71580505 C-14.69359783 125.04261763 -14.69359783 125.04261763 -34.5 136.4375 C-36.01980469 137.31438477 -36.01980469 137.31438477 -37.5703125 138.20898438 C-38.57835937 138.79099609 -39.58640625 139.37300781 -40.625 139.97265625 C-42.06359375 140.80240967 -42.06359375 140.80240967 -43.53125 141.64892578 C-45.64177263 142.87601419 -47.74524086 144.11527096 -49.84375 145.36279297 C-51.46796875 146.32596436 -51.46796875 146.32596436 -53.125 147.30859375 C-54.10726562 147.89568115 -55.08953125 148.48276855 -56.1015625 149.08764648 C-58.5 150.375 -58.5 150.375 -60.5 150.375 C-60.88150002 147.04488859 -61.10927788 143.72034872 -61.3125 140.375 C-61.42142578 139.44042969 -61.53035156 138.50585938 -61.64257812 137.54296875 C-61.78532399 134.4025598 -61.65014888 132.31279623 -60.5 129.375 C-57.12718678 126.36572354 -53.3914945 124.35564254 -49.38375854 122.33959961 C-46.91361898 121.07473705 -44.53028983 119.68082661 -42.1363678 118.27844238 C-39.14941335 116.53114719 -36.134757 114.83260615 -33.125 113.125 C-31.89441293 112.42468704 -30.66394385 111.7241667 -29.43359375 111.0234375 C-27.11892115 109.70515747 -24.80267938 108.3897949 -22.48535156 107.07617188 C-20.06956748 105.69956217 -17.67003078 104.30009433 -15.2734375 102.890625 C-12.5 101.375 -12.5 101.375 -10.5 101.375 C-10.5 76.625 -10.5 51.875 -10.5 26.375 C-16.11 29.675 -21.72 32.975 -27.5 36.375 C-28.82 37.035 -30.14 37.695 -31.5 38.375 C-33.03423704 31.13458136 -34.29456896 23.41711792 -31.5 16.375 C-25.73101467 10.37074805 -17.79925562 6.96340969 -10.27075195 3.65161133 C-7.44703263 2.42310398 -7.44703263 2.42310398 -4.79760742 0.67456055 C-2.5 -0.625 -2.5 -0.625 0 0 Z " fill="#FDFEFE" transform="translate(213.5,76.625)"/>
<path d="M0 0 C6.27 0 12.54 0 19 0 C19 16.5 19 33 19 50 C20.65 50.66 22.3 51.32 24 52 C25.80151584 52.94045234 27.58719208 53.91162563 29.359375 54.90625 C30.38530762 55.48084961 31.41124023 56.05544922 32.46826172 56.64746094 C33.55123535 57.25879883 34.63420898 57.87013672 35.75 58.5 C37.41506592 59.43634277 37.41506592 59.43634277 39.11376953 60.39160156 C61.65979714 73.10653143 61.65979714 73.10653143 69 78 C69.34057617 80.15478516 69.34057617 80.15478516 69.29296875 82.7890625 C69.28330078 83.73007813 69.27363281 84.67109375 69.26367188 85.640625 C69.23853516 86.62546875 69.21339844 87.6103125 69.1875 88.625 C69.16719727 90.11386719 69.16719727 90.11386719 69.14648438 91.6328125 C69.11105743 94.08908072 69.06166196 96.54427285 69 99 C64.89102713 97.7423893 61.34593014 96.22023808 57.640625 94.05078125 C56.6196875 93.4570874 55.59875 92.86339355 54.546875 92.25170898 C53.45890625 91.61177002 52.3709375 90.97183105 51.25 90.3125 C49.51699938 89.30236249 47.78399321 88.29223436 46.05065918 87.28266907 C44.24704435 86.23135699 42.44478505 85.1777468 40.64257812 84.12402344 C37.05616988 82.02967053 33.45947579 79.95352073 29.859375 77.8828125 C29.28076721 77.54990707 28.70215942 77.21700165 28.10601807 76.87400818 C25.3394589 75.28255664 22.57254454 73.69172291 19.80566406 72.10083008 C1.62091917 61.62091917 1.62091917 61.62091917 0 60 C-0.09386381 58.1281906 -0.11743804 56.2528194 -0.11352539 54.37866211 C-0.11344986 53.17749252 -0.11337433 51.97632294 -0.11329651 50.73875427 C-0.10813522 49.4314888 -0.10297394 48.12422333 -0.09765625 46.77734375 C-0.09579198 45.43355868 -0.09436812 44.08977293 -0.09336853 42.74598694 C-0.08954402 39.20317723 -0.07971432 35.6604083 -0.06866455 32.11761475 C-0.05844899 28.50484773 -0.0538706 24.89207416 -0.04882812 21.27929688 C-0.03809198 14.18617961 -0.02049572 7.09309675 0 0 Z " fill="#FAFDFE" transform="translate(36,128)"/>
<path d="M0 0 C3.88461437 1.55384575 7.17185557 3.13764688 10.76953125 5.203125 C11.89367432 5.84677002 13.01781738 6.49041504 14.17602539 7.15356445 C15.38825806 7.85224712 16.60041442 8.55106219 17.8125 9.25 C19.06947331 9.97178428 20.32655481 10.69338016 21.58374023 11.41479492 C31.54222351 17.13547369 41.46637086 22.91496496 51.37890625 28.71484375 C59.56879708 33.50612154 67.78449089 38.25283082 76 43 C73.00201439 46.23466868 69.89658819 48.53323233 66.125 50.8125 C65.11695313 51.43769531 64.10890625 52.06289062 63.0703125 52.70703125 C59.36987321 54.26535874 57.85783641 53.93164622 54 53 C51.34472656 51.74755859 51.34472656 51.74755859 48.640625 50.1484375 C47.61904297 49.55111816 46.59746094 48.95379883 45.54492188 48.33837891 C44.45759766 47.69046387 43.37027344 47.04254883 42.25 46.375 C40.52548899 45.36329016 38.80096887 44.35159547 37.07592773 43.34078979 C35.2748974 42.28397895 33.47620957 41.22326165 31.67773438 40.16210938 C26.21633787 36.94494296 20.72236377 33.78419961 15.22937012 30.62139893 C13.51957683 29.63627944 11.81105012 28.64896271 10.10253906 27.66162109 C9.06838867 27.06430176 8.03423828 26.46698242 6.96875 25.8515625 C6.05544922 25.32385254 5.14214844 24.79614258 4.20117188 24.25244141 C2.82011309 23.46663489 1.42121505 22.71060752 0 22 C0 14.74 0 7.48 0 0 Z " fill="#FBFDFE" transform="translate(128,28)"/>
<path d="M0 0 C3.58654247 1.73558559 7.10227292 3.57913777 10.60546875 5.4765625 C11.29833984 5.84910156 11.99121094 6.22164062 12.70507812 6.60546875 C14.40231711 7.51846627 16.09782013 8.43468966 17.79296875 9.3515625 C17.79296875 10.0115625 17.79296875 10.6715625 17.79296875 11.3515625 C19.11296875 11.6815625 20.43296875 12.0115625 21.79296875 12.3515625 C21.79296875 21.5915625 21.79296875 30.8315625 21.79296875 40.3515625 C19.17359375 41.8365625 16.55421875 43.3215625 13.85546875 44.8515625 C13.02926025 45.32142578 12.20305176 45.79128906 11.35180664 46.27539062 C10.7046167 46.64083984 10.05742676 47.00628906 9.390625 47.3828125 C8.39301147 47.94838867 8.39301147 47.94838867 7.37524414 48.52539062 C5.79296875 49.3515625 5.79296875 49.3515625 4.79296875 49.3515625 C4.79296875 47.3715625 4.79296875 45.3915625 4.79296875 43.3515625 C6.58178611 42.34647449 8.37411571 41.34763514 10.16796875 40.3515625 C11.16570313 39.7946875 12.1634375 39.2378125 13.19140625 38.6640625 C15.79296875 37.3515625 15.79296875 37.3515625 17.79296875 37.3515625 C17.79296875 31.0815625 17.79296875 24.8115625 17.79296875 18.3515625 C16.80296875 19.0115625 15.81296875 19.6715625 14.79296875 20.3515625 C13.80296875 20.3515625 12.81296875 20.3515625 11.79296875 20.3515625 C11.19484375 20.9703125 10.59671875 21.5890625 9.98046875 22.2265625 C7.40872286 24.72482993 5.21466258 25.41837327 1.79296875 26.3515625 C1.79296875 28.9915625 1.79296875 31.6315625 1.79296875 34.3515625 C2.90671875 33.6915625 4.02046875 33.0315625 5.16796875 32.3515625 C8.54296875 30.3515625 8.54296875 30.3515625 10.79296875 30.3515625 C11.08203125 32.640625 11.08203125 32.640625 10.79296875 35.3515625 C7.16614318 38.72035305 2.7451131 41.1888838 -2.20703125 41.6015625 C-3.19703125 41.1890625 -4.18703125 40.7765625 -5.20703125 40.3515625 C-6.04878906 40.04347656 -6.89054687 39.73539063 -7.7578125 39.41796875 C-10.84802961 38.01491402 -12.88500793 36.8441299 -15.20703125 34.3515625 C-16.07212375 30.55879243 -16.209479 27.18546846 -16.14453125 23.30078125 C-16.16515625 22.32753906 -16.18578125 21.35429687 -16.20703125 20.3515625 C-16.86703125 20.0215625 -17.52703125 19.6915625 -18.20703125 19.3515625 C-18.53703125 25.2915625 -18.86703125 31.2315625 -19.20703125 37.3515625 C-17.55703125 38.0115625 -15.90703125 38.6715625 -14.20703125 39.3515625 C-11.82614456 40.61338639 -9.53085474 41.98460751 -7.20703125 43.3515625 C-7.20703125 45.0015625 -7.20703125 46.6515625 -7.20703125 48.3515625 C-13.57915098 46.34990822 -19.48066283 44.23537561 -24.20703125 39.3515625 C-25.55059021 34.63983256 -25.25829008 30.26502813 -24.89453125 25.4140625 C-24.84490234 24.15787109 -24.79527344 22.90167969 -24.74414062 21.60742188 C-24.614849 18.51617674 -24.43452426 15.43687678 -24.20703125 12.3515625 C-22.88703125 12.0215625 -21.56703125 11.6915625 -20.20703125 11.3515625 C-20.20703125 10.6915625 -20.20703125 10.0315625 -20.20703125 9.3515625 C-19.49417969 8.96484375 -18.78132813 8.578125 -18.046875 8.1796875 C-17.08910156 7.65890625 -16.13132812 7.138125 -15.14453125 6.6015625 C-14.14035156 6.06015625 -13.13617188 5.51875 -12.1015625 4.9609375 C-9.77411662 3.66686503 -7.56442385 2.29692534 -5.33203125 0.8515625 C-2.20703125 -0.6484375 -2.20703125 -0.6484375 0 0 Z " fill="#F1F9FE" transform="translate(33.20703125,7.6484375)"/>
<path d="M0 0 C5.13791898 1.45999872 9.25819347 3.76946116 13.75 6.5625 C18.29909204 9.41605733 18.29909204 9.41605733 23 12 C24.14449602 16.35357311 24.47999632 19.70340168 23 24 C20.39176738 26.04490933 17.48268799 27.39079426 14.5 28.8125 C8.85549342 31.27944479 8.85549342 31.27944479 5.19482422 35.89306641 C4.49613482 40.3476065 5.10140947 44.59514445 6 49 C7.58941406 48.02546875 7.58941406 48.02546875 9.2109375 47.03125 C10.59881775 46.18726877 11.98684629 45.34353136 13.375 44.5 C14.07367188 44.07074219 14.77234375 43.64148438 15.4921875 43.19921875 C20.7734375 40 20.7734375 40 23 40 C23 43.63 23 47.26 23 51 C19.6138798 53.03885752 16.21777439 55.05610067 12.8125 57.0625 C11.85279297 57.64322266 10.89308594 58.22394531 9.90429688 58.82226562 C8.97294922 59.36689453 8.04160156 59.91152344 7.08203125 60.47265625 C5.80162964 61.23461304 5.80162964 61.23461304 4.49536133 62.01196289 C0.54012697 63.57803602 -1.93148075 62.4169946 -5.77075195 60.91870117 C-25.37039028 51.83240237 -25.37039028 51.83240237 -28.11474609 45.37841797 C-29.10506883 39.43542915 -28.26915299 33.84045402 -27 28 C-24.03 28 -21.06 28 -18 28 C-18.06703125 28.92941406 -18.1340625 29.85882813 -18.203125 30.81640625 C-18.25355175 34.84634423 -18.10617073 38.11356875 -17 42 C-13.21035894 45.44365385 -9.76452581 46.89357806 -5 49 C-5 44.05 -5 39.1 -5 34 C-7.97 32.35 -10.94 30.7 -14 29 C-14 28.67 -14 28.34 -14 28 C-9.38 28 -4.76 28 0 28 C0.33 27.01 0.66 26.02 1 25 C3.72265625 23.17578125 3.72265625 23.17578125 7.0625 21.3125 C8.16722656 20.68988281 9.27195313 20.06726563 10.41015625 19.42578125 C11.26480469 18.95527344 12.11945313 18.48476563 13 18 C12.14535156 17.50628906 11.29070312 17.01257813 10.41015625 16.50390625 C9.30542969 15.86324219 8.20070312 15.22257812 7.0625 14.5625 C5.40927734 13.60537109 5.40927734 13.60537109 3.72265625 12.62890625 C1 11 1 11 0 10 C-0.07205511 8.31391034 -0.08386068 6.62499341 -0.0625 4.9375 C-0.05347656 4.01839844 -0.04445313 3.09929688 -0.03515625 2.15234375 C-0.02355469 1.44207031 -0.01195313 0.73179688 0 0 Z " fill="#FAFDFE" transform="translate(64,36)"/>
<path d="M0 0 C2.10546875 1.3046875 2.10546875 1.3046875 3.10546875 2.3046875 C3.26665201 3.9174317 3.35983788 5.53703758 3.42529297 7.15649414 C3.48811966 8.70929832 3.48811966 8.70929832 3.55221558 10.29347229 C3.7024907 15.05670928 3.80986115 19.81988785 3.89501953 24.5847168 C3.95171837 27.0945316 4.03352076 29.60391203 4.14111328 32.11206055 C4.9909194 52.29029387 4.9909194 52.29029387 1.94845581 57.15447998 C-1.40832597 60.4335542 -5.54548663 61.7997848 -9.89453125 63.3046875 C-11.70492831 64.32358474 -13.49322801 65.38338578 -15.25 66.4921875 C-16.85964051 67.43146613 -18.47029452 68.36901041 -20.08203125 69.3046875 C-21.32823242 70.03751953 -21.32823242 70.03751953 -22.59960938 70.78515625 C-23.39173828 71.24535156 -24.18386719 71.70554687 -25 72.1796875 C-25.70278076 72.58960937 -26.40556152 72.99953125 -27.12963867 73.421875 C-28.89453125 74.3046875 -28.89453125 74.3046875 -30.89453125 74.3046875 C-30.89453125 70.6746875 -30.89453125 67.0446875 -30.89453125 63.3046875 C-29.65316406 62.61761719 -28.41179687 61.93054688 -27.1328125 61.22265625 C-25.49086018 60.31254553 -23.84893449 59.40238675 -22.20703125 58.4921875 C-21.39041016 58.04037109 -20.57378906 57.58855469 -19.73242188 57.12304688 C-18.53842773 56.46079102 -18.53842773 56.46079102 -17.3203125 55.78515625 C-16.59239502 55.38192139 -15.86447754 54.97868652 -15.11450195 54.56323242 C-14.01561646 53.94025269 -14.01561646 53.94025269 -12.89453125 53.3046875 C-11.98832031 52.92699219 -11.08210938 52.54929688 -10.1484375 52.16015625 C-7.49469069 50.39467123 -7.49469069 50.39467123 -7.3269043 46.65942383 C-7.3276946 45.15162369 -7.35587355 43.64367731 -7.40625 42.13671875 C-7.41332474 41.34190598 -7.42039948 40.5470932 -7.4276886 39.72819519 C-7.45567251 37.19023389 -7.51841285 34.65448143 -7.58203125 32.1171875 C-7.6071092 30.39651625 -7.62992326 28.6758104 -7.65039062 26.95507812 C-7.70551158 22.73743053 -7.79180713 18.52143343 -7.89453125 14.3046875 C-9.00828125 14.9646875 -10.12203125 15.6246875 -11.26953125 16.3046875 C-14.64453125 18.3046875 -14.64453125 18.3046875 -16.89453125 18.3046875 C-16.89453125 14.6746875 -16.89453125 11.0446875 -16.89453125 7.3046875 C-14.67721189 5.90648612 -12.44914971 4.53705392 -10.20703125 3.1796875 C-9.58119141 2.78136719 -8.95535156 2.38304687 -8.31054688 1.97265625 C-3.56905535 -0.85734393 -3.56905535 -0.85734393 0 0 Z " fill="#F4FAFE" transform="translate(107.89453125,38.6953125)"/>
<path d="M0 0 C3.58654247 1.73558559 7.10227292 3.57913777 10.60546875 5.4765625 C11.29833984 5.84910156 11.99121094 6.22164062 12.70507812 6.60546875 C14.40231711 7.51846627 16.09782013 8.43468966 17.79296875 9.3515625 C17.79296875 10.0115625 17.79296875 10.6715625 17.79296875 11.3515625 C19.11296875 11.6815625 20.43296875 12.0115625 21.79296875 12.3515625 C21.79296875 21.5915625 21.79296875 30.8315625 21.79296875 40.3515625 C19.17359375 41.8365625 16.55421875 43.3215625 13.85546875 44.8515625 C13.02926025 45.32142578 12.20305176 45.79128906 11.35180664 46.27539062 C10.7046167 46.64083984 10.05742676 47.00628906 9.390625 47.3828125 C8.39301147 47.94838867 8.39301147 47.94838867 7.37524414 48.52539062 C5.79296875 49.3515625 5.79296875 49.3515625 4.79296875 49.3515625 C4.79296875 47.3715625 4.79296875 45.3915625 4.79296875 43.3515625 C6.58178611 42.34647449 8.37411571 41.34763514 10.16796875 40.3515625 C11.16570313 39.7946875 12.1634375 39.2378125 13.19140625 38.6640625 C15.79296875 37.3515625 15.79296875 37.3515625 17.79296875 37.3515625 C17.79296875 31.0815625 17.79296875 24.8115625 17.79296875 18.3515625 C16.80296875 19.0115625 15.81296875 19.6715625 14.79296875 20.3515625 C13.80296875 20.3515625 12.81296875 20.3515625 11.79296875 20.3515625 C11.46296875 19.3615625 11.13296875 18.3715625 10.79296875 17.3515625 C8.65707394 15.62630031 8.65707394 15.62630031 6.04296875 14.1015625 C5.181875 13.56015625 4.32078125 13.01875 3.43359375 12.4609375 C0.31526521 11.15087048 -1.03393904 11.31146405 -4.20703125 12.3515625 C-6.95275853 13.83144213 -6.95275853 13.83144213 -9.20703125 15.3515625 C-7.49280235 16.58552291 -7.49280235 16.58552291 -5.20703125 17.3515625 C-4.40265625 17.0009375 -3.59828125 16.6503125 -2.76953125 16.2890625 C-1.92390625 15.9796875 -1.07828125 15.6703125 -0.20703125 15.3515625 C2.60546875 16.7265625 2.60546875 16.7265625 4.79296875 18.3515625 C3.79296875 21.3515625 3.79296875 21.3515625 1.28125 22.828125 C-3.8854667 23.6034218 -6.7271512 21.42713921 -11.01953125 18.7265625 C-11.79490234 18.27410156 -12.57027344 17.82164063 -13.36914062 17.35546875 C-19.01391849 13.92810581 -19.01391849 13.92810581 -19.93237305 11.18603516 C-20.06832886 10.27797119 -20.06832886 10.27797119 -20.20703125 9.3515625 C-19.49417969 8.96484375 -18.78132813 8.578125 -18.046875 8.1796875 C-17.08910156 7.65890625 -16.13132812 7.138125 -15.14453125 6.6015625 C-14.14035156 6.06015625 -13.13617188 5.51875 -12.1015625 4.9609375 C-9.77411662 3.66686503 -7.56442385 2.29692534 -5.33203125 0.8515625 C-2.20703125 -0.6484375 -2.20703125 -0.6484375 0 0 Z " fill="#28A6FB" transform="translate(33.20703125,7.6484375)"/>
<path d="M0 0 C3.3 0 6.6 0 10 0 C9.91508301 0.68924561 9.83016602 1.37849121 9.74267578 2.08862305 C8.96305395 9.75234401 8.28227338 17.66587705 11 25 C16.27982551 30.89066578 23.68990806 34.08431002 30.8828125 37.08984375 C33 38 33 38 34 39 C34.07205511 40.68608966 34.08386068 42.37500659 34.0625 44.0625 C34.05347656 44.98160156 34.04445312 45.90070313 34.03515625 46.84765625 C34.02355469 47.55792969 34.01195312 48.26820312 34 49 C28.71253384 47.50354731 24.40927421 45.07088214 19.75 42.25 C19.00363281 41.80406494 18.25726563 41.35812988 17.48828125 40.89868164 C16.00437642 40.01126412 14.52191241 39.12143213 13.04101562 38.22900391 C11.26585825 37.16008737 9.48498068 36.10068166 7.703125 35.04296875 C1.15213523 31.15213523 1.15213523 31.15213523 0 30 C-0.08783542 27.78144736 -0.10694609 25.56011504 -0.09765625 23.33984375 C-0.0962413 22.67537735 -0.09482635 22.01091095 -0.09336853 21.3263092 C-0.08775518 19.19666101 -0.07520054 17.06711661 -0.0625 14.9375 C-0.05748671 13.49674631 -0.05292351 12.05599097 -0.04882812 10.61523438 C-0.03778145 7.07678898 -0.02050792 3.53840461 0 0 Z " fill="#F5FBFE" transform="translate(18,64)"/>
<path d="M0 0 C8.67538534 4.17878127 16.99815929 8.79110163 25.25 13.75 C26.39961591 14.42859498 27.54935501 15.1069813 28.69921875 15.78515625 C29.77300781 16.42839844 30.84679687 17.07164063 31.953125 17.734375 C32.92411133 18.31413086 33.89509766 18.89388672 34.89550781 19.49121094 C35.58999023 19.98911133 36.28447266 20.48701172 37 21 C37 21.66 37 22.32 37 23 C32.1171875 26.3203125 32.1171875 26.3203125 30 27 C23.39810439 25.14394484 17.6038634 21.84770586 11.625 18.5625 C10.50738281 17.99595703 9.38976562 17.42941406 8.23828125 16.84570312 C5.09335724 15.09660314 2.52657231 13.56724955 0 11 C-0.95193017 7.15052799 -0.7395441 3.87310818 0 0 Z " fill="#F8FCFE" transform="translate(64,14)"/>
<path d="M0 0 C0 9.24 0 18.48 0 28 C-2.619375 29.485 -5.23875 30.97 -7.9375 32.5 C-9.17681274 33.20479492 -9.17681274 33.20479492 -10.44116211 33.92382812 C-11.08835205 34.28927734 -11.73554199 34.65472656 -12.40234375 35.03125 C-13.39995728 35.59682617 -13.39995728 35.59682617 -14.41772461 36.17382812 C-16 37 -16 37 -17 37 C-17 35.02 -17 33.04 -17 31 C-15.21118264 29.99491199 -13.41885304 28.99607264 -11.625 28 C-10.62726562 27.443125 -9.62953125 26.88625 -8.6015625 26.3125 C-6 25 -6 25 -4 25 C-4 18.73 -4 12.46 -4 6 C-4.99 6.66 -5.98 7.32 -7 8 C-7.99 8 -8.98 8 -10 8 C-10 6.35 -10 4.7 -10 3 C-3.375 -1.125 -3.375 -1.125 0 0 Z " fill="#F4FAFE" transform="translate(55,20)"/>
<path d="M0 0 C0.7940625 0.51304687 1.588125 1.02609375 2.40625 1.5546875 C3.58767291 2.20707179 4.77146898 2.85516865 5.95703125 3.5 C7.21285235 4.22324775 8.46672984 4.94987966 9.71875 5.6796875 C10.36392578 6.05222656 11.00910156 6.42476562 11.67382812 6.80859375 C13.25300945 7.72100963 14.82986864 8.63744259 16.40625 9.5546875 C16.40625 10.2146875 16.40625 10.8746875 16.40625 11.5546875 C14.03125 12.4296875 14.03125 12.4296875 10.40625 12.5546875 C7.74788229 11.13858732 5.32904272 9.54427855 2.87109375 7.8046875 C0.48917076 6.33658288 0.48917076 6.33658288 -2.125 6.703125 C-4.70254006 7.59221319 -6.73620813 8.71511533 -9.03125 10.1796875 C-12.2842598 12.07818319 -13.26861384 12.57179993 -17.15625 12.3671875 C-17.960625 12.0990625 -18.765 11.8309375 -19.59375 11.5546875 C-19.59375 10.8946875 -19.59375 10.2346875 -19.59375 9.5546875 C-17.05033556 7.53404177 -14.19444047 5.96437896 -11.40625 4.3046875 C-10.63732422 3.82 -9.86839844 3.3353125 -9.07617188 2.8359375 C-3.36283236 -0.57735375 -3.36283236 -0.57735375 0 0 Z " fill="#F1F9FE" transform="translate(33.59375,7.4453125)"/>
<path d="M0 0 C3.465 1.98 3.465 1.98 7 4 C7 6.64 7 9.28 7 12 C3.535 10.02 3.535 10.02 0 8 C0 5.36 0 2.72 0 0 Z " fill="#25A5FB" transform="translate(23,31)"/>
</svg>
