<?xml version="1.0" encoding="UTF-8"?>
<svg version="1.1" xmlns="http://www.w3.org/2000/svg" width="256" height="256">
<path d="M0 0 C84.48 0 168.96 0 256 0 C256 84.48 256 168.96 256 256 C171.52 256 87.04 256 0 256 C0 171.52 0 87.04 0 0 Z " fill="#19A0FB" transform="translate(0,0)"/>
<path d="M0 0 C0.8058252 0.44166504 1.61165039 0.88333008 2.44189453 1.33837891 C3.55927002 1.92534546 3.55927002 1.92534546 4.69921875 2.52416992 C5.83641357 3.17663696 5.83641357 3.17663696 6.99658203 3.84228516 C7.851875 4.33156494 8.70716797 4.82084473 9.58837891 5.32495117 C10.48878906 5.84500732 11.38919922 6.36506348 12.31689453 6.90087891 C13.71004883 7.70126587 13.71004883 7.70126587 15.13134766 8.51782227 C22.96003029 13.02902645 30.71815605 17.65038815 38.44189453 22.33837891 C39.31934326 22.76151367 40.19679199 23.18464844 41.10083008 23.62060547 C43.44189453 25.33837891 43.44189453 25.33837891 44.00952148 27.7902832 C43.9833374 28.73814697 43.95715332 29.68601074 43.93017578 30.66259766 C43.9140625 31.690625 43.89794922 32.71865234 43.88134766 33.77783203 C43.83945313 34.8496875 43.79755859 35.92154297 43.75439453 37.02587891 C43.72055664 38.65106445 43.72055664 38.65106445 43.68603516 40.30908203 C43.62705243 42.98689795 43.5447976 45.66194918 43.44189453 48.33837891 C39.90444848 50.38402418 36.36641825 52.42865517 32.82788086 54.47241211 C31.62818185 55.16550372 30.42863335 55.85885591 29.22924805 56.55249023 C28.06451065 57.22604401 26.89910456 57.89844283 25.73301697 58.56965637 C24.02096175 59.56151269 22.31936967 60.57135786 20.61791992 61.58129883 C17.44189453 63.33837891 17.44189453 63.33837891 14.62329102 64.38647461 C11.91729467 65.43244266 10.357175 66.14568271 8.44189453 68.33837891 C7.18466775 73.6152837 7.27206941 78.77083243 7.37939453 84.15087891 C7.37631806 85.62159625 7.36919915 87.09231105 7.35791016 88.56298828 C7.33911647 92.15594354 7.37563081 95.74587077 7.44189453 99.33837891 C17.4569238 93.83304118 27.41204087 88.25424027 37.22094727 82.38769531 C42.34097652 79.33837891 42.34097652 79.33837891 43.44189453 79.33837891 C43.44189453 86.59837891 43.44189453 93.85837891 43.44189453 101.33837891 C41.77384766 102.29357422 40.10580078 103.24876953 38.38720703 104.23291016 C36.7100469 105.1961938 35.03290063 106.1595017 33.35604858 107.12332153 C32.16595043 107.80682564 30.97537988 108.48950791 29.78433228 109.1713562 C23.74957582 112.62724668 17.73941884 116.09933254 11.88330078 119.85400391 C10.66392822 120.63167114 10.66392822 120.63167114 9.41992188 121.42504883 C7.924339 122.38868115 6.43837389 123.36745417 4.96386719 124.36303711 C2.95361328 125.65478516 2.95361328 125.65478516 -0.55810547 127.33837891 C-4.2707793 126.22803589 -7.54770185 124.32339188 -10.91748047 122.43212891 C-11.94284912 121.85785156 -12.96821777 121.28357422 -14.0246582 120.69189453 C-15.6499646 119.7744043 -15.6499646 119.7744043 -17.30810547 118.83837891 C-18.4232251 118.21125 -19.53834473 117.58412109 -20.68725586 116.93798828 C-38.49412957 106.89525516 -38.49412957 106.89525516 -45.4412384 102.55874634 C-47.58246278 101.27159685 -47.58246278 101.27159685 -50.08396912 100.23898315 C-52.98296133 98.85238749 -55.20676994 97.53934345 -57.55810547 95.33837891 C-58.94579391 91.19624828 -58.72892703 87.26909469 -58.53466797 82.93994141 C-58.52051849 81.74984467 -58.50636902 80.55974792 -58.49179077 79.33358765 C-58.43590978 75.54093382 -58.31047684 71.75423917 -58.18310547 67.96337891 C-58.1329369 65.38924562 -58.08731093 62.81501951 -58.04638672 60.24072266 C-57.93626936 53.93791614 -57.76905908 47.6385731 -57.55810547 41.33837891 C-59.20810547 40.67837891 -60.85810547 40.01837891 -62.55810547 39.33837891 C-66.51810547 37.02837891 -70.47810547 34.71837891 -74.55810547 32.33837891 C-74.88810547 56.75837891 -75.21810547 81.17837891 -75.55810547 106.33837891 C-73.90810547 106.99837891 -72.25810547 107.65837891 -70.55810547 108.33837891 C-68.75658962 109.27883125 -66.97091339 110.25000454 -65.19873047 111.24462891 C-64.17279785 111.81922852 -63.14686523 112.39382812 -62.08984375 112.98583984 C-61.00687012 113.59717773 -59.92389648 114.20851563 -58.80810547 114.83837891 C-57.69806152 115.46260742 -56.58801758 116.08683594 -55.44433594 116.72998047 C-32.89830833 129.44491033 -32.89830833 129.44491033 -25.55810547 134.33837891 C-25.2175293 136.49316406 -25.2175293 136.49316406 -25.26513672 139.12744141 C-25.27480469 140.06845703 -25.28447266 141.00947266 -25.29443359 141.97900391 C-25.31957031 142.96384766 -25.34470703 143.94869141 -25.37060547 144.96337891 C-25.3909082 146.45224609 -25.3909082 146.45224609 -25.41162109 147.97119141 C-25.44704804 150.42745963 -25.49644351 152.88265175 -25.55810547 155.33837891 C-29.66707834 154.08076821 -33.21217533 152.55861698 -36.91748047 150.38916016 C-38.44888672 149.49861938 -38.44888672 149.49861938 -40.01123047 148.59008789 C-41.09919922 147.95014893 -42.18716797 147.31020996 -43.30810547 146.65087891 C-45.04110609 145.6407414 -46.77411226 144.63061327 -48.50744629 143.62104797 C-50.31106112 142.5697359 -52.11332042 141.5161257 -53.91552734 140.46240234 C-57.50193559 138.36804943 -61.09862968 136.29189963 -64.69873047 134.22119141 C-65.27733826 133.88828598 -65.85594604 133.55538055 -66.4520874 133.21238708 C-69.21864657 131.62093555 -71.98556093 130.03010182 -74.75244141 128.43920898 C-92.9371863 117.95929808 -92.9371863 117.95929808 -94.55810547 116.33837891 C-94.65353642 114.94694202 -94.67999122 113.55069523 -94.67835999 112.1559906 C-94.67973465 111.25430145 -94.68110931 110.3526123 -94.68252563 109.42359924 C-94.67893036 108.4266655 -94.67533508 107.42973175 -94.67163086 106.40258789 C-94.67177689 105.35880981 -94.67192291 104.31503174 -94.67207336 103.23962402 C-94.67137373 99.77121948 -94.663579 96.30286788 -94.65576172 92.83447266 C-94.65389772 90.43693572 -94.65247373 88.03939841 -94.651474 85.64186096 C-94.64764741 79.31742306 -94.63781593 72.99300796 -94.62677002 66.6685791 C-94.61655892 60.22062488 -94.61197703 53.772667 -94.60693359 47.32470703 C-94.59619378 34.6625879 -94.57930666 22.00048461 -94.55810547 9.33837891 C-92.98492583 8.46407841 -91.40090103 7.60927135 -89.8125 6.76293945 C-88.93159698 6.2848735 -88.05069397 5.80680756 -87.14309692 5.31425476 C-84.55810547 4.33837891 -84.55810547 4.33837891 -82.31869507 4.71560669 C-80.19434217 5.67840825 -78.36074032 6.83734775 -76.43310547 8.15087891 C-74.85770654 9.12243078 -73.28217885 10.09377387 -71.70654297 11.06494141 C-70.87477539 11.59764648 -70.04300781 12.13035156 -69.18603516 12.67919922 C-65.53072845 14.98702757 -61.79181766 17.13868361 -58.04833984 19.29956055 C-55.00506434 21.05650055 -51.9721771 22.8303288 -48.94091797 24.60791016 C-41.18625157 29.14690431 -33.40923387 33.64721894 -25.61401367 38.11621094 C-21.03935865 40.73977158 -16.47481164 43.36637077 -11.98388672 46.13134766 C-11.33564941 46.52402832 -10.68741211 46.91670898 -10.01953125 47.32128906 C-8.40332523 48.30489256 -6.79841418 49.30699483 -5.19482422 50.31103516 C-2.62371633 51.63285371 -2.62371633 51.63285371 -0.2109375 50.57885742 C2.44919159 49.33496676 4.98019409 47.9850037 7.52392578 46.51806641 C8.45527344 45.98310547 9.38662109 45.44814453 10.34619141 44.89697266 C11.30589844 44.34138672 12.26560547 43.78580078 13.25439453 43.21337891 C14.2334375 42.65005859 15.21248047 42.08673828 16.22119141 41.50634766 C18.62979008 40.11993476 21.03660848 38.73052836 23.44189453 37.33837891 C18.94524998 33.47753041 14.03117211 30.52255154 8.94189453 27.52587891 C8.10013672 27.01089844 7.25837891 26.49591797 6.39111328 25.96533203 C5.16328125 25.24313477 5.16328125 25.24313477 3.91064453 24.50634766 C3.17265625 24.06572998 2.43466797 23.6251123 1.67431641 23.17114258 C-1.1807173 22.10612508 -2.67595059 22.4319504 -5.55810547 23.33837891 C-7.440858 24.27437239 -7.440858 24.27437239 -9.15185547 25.47509766 C-9.78994141 25.88695313 -10.42802734 26.29880859 -11.08544922 26.72314453 C-12.40596742 27.59520952 -13.72107678 28.47551786 -15.03076172 29.36376953 C-19.88198407 32.4656117 -19.88198407 32.4656117 -23.06982422 31.86572266 C-23.89095703 31.36169922 -24.71208984 30.85767578 -25.55810547 30.33837891 C-26.74086587 29.68842261 -27.92453181 29.04011263 -29.10888672 28.39306641 C-30.36470782 27.66981865 -31.61858531 26.94318674 -32.87060547 26.21337891 C-33.51578125 25.84083984 -34.16095703 25.46830078 -34.82568359 25.08447266 C-36.40486492 24.17205678 -37.98172411 23.25562381 -39.55810547 22.33837891 C-39.55810547 21.67837891 -39.55810547 21.01837891 -39.55810547 20.33837891 C-38.51638184 19.75721313 -38.51638184 19.75721313 -37.45361328 19.16430664 C-34.23778364 17.36934431 -31.02294196 15.57261935 -27.80810547 13.77587891 C-26.71626953 13.16679688 -25.62443359 12.55771484 -24.49951172 11.93017578 C-23.41025391 11.32109375 -22.32099609 10.71201172 -21.19873047 10.08447266 C-20.10109375 9.47458496 -19.00345703 8.86469727 -17.87255859 8.23632812 C-15.62985611 6.95209351 -13.414873 5.61841066 -11.22802734 4.24121094 C-10.17679687 3.58362793 -9.12556641 2.92604492 -8.04248047 2.24853516 C-7.10629883 1.64275635 -6.17011719 1.03697754 -5.20556641 0.4128418 C-2.55810547 -0.66162109 -2.55810547 -0.66162109 0 0 Z " fill="#FBFDFE" transform="translate(130.55810546875,71.66162109375)"/>
<path d="M0 0 C0.825 0.45375 1.65 0.9075 2.5 1.375 C3.79728279 1.84278618 3.79728279 1.84278618 5.12077332 2.32002258 C7.5 4.375 7.5 4.375 7.95144081 6.3717556 C8.11953415 9.13618759 8.11745327 11.86038428 8.06762695 14.62963867 C8.06835709 15.68346237 8.06908722 16.73728607 8.06983948 17.82304382 C8.06635025 21.31353863 8.02742387 24.80270647 7.98828125 28.29296875 C7.97895793 30.71006033 7.97183955 33.12716135 7.96684265 35.54426575 C7.94773528 41.911672 7.89860121 48.27850962 7.84332275 54.64569092 C7.79221148 61.14066881 7.76934592 67.63573842 7.74414062 74.13085938 C7.69048698 86.87914911 7.60608682 99.62704434 7.5 112.375 C6.7251123 112.81746567 5.95022461 113.25993134 5.15185547 113.71580505 C-14.69359783 125.04261763 -14.69359783 125.04261763 -34.5 136.4375 C-36.01980469 137.31438477 -36.01980469 137.31438477 -37.5703125 138.20898438 C-38.57835937 138.79099609 -39.58640625 139.37300781 -40.625 139.97265625 C-42.06359375 140.80240967 -42.06359375 140.80240967 -43.53125 141.64892578 C-45.64177263 142.87601419 -47.74524086 144.11527096 -49.84375 145.36279297 C-51.46796875 146.32596436 -51.46796875 146.32596436 -53.125 147.30859375 C-54.10726562 147.89568115 -55.08953125 148.48276855 -56.1015625 149.08764648 C-58.5 150.375 -58.5 150.375 -60.5 150.375 C-60.88150002 147.04488859 -61.10927788 143.72034872 -61.3125 140.375 C-61.42142578 139.44042969 -61.53035156 138.50585938 -61.64257812 137.54296875 C-61.78532399 134.4025598 -61.65014888 132.31279623 -60.5 129.375 C-57.12718678 126.36572354 -53.3914945 124.35564254 -49.38375854 122.33959961 C-46.91361898 121.07473705 -44.53028983 119.68082661 -42.1363678 118.27844238 C-39.14941335 116.53114719 -36.134757 114.83260615 -33.125 113.125 C-31.89441293 112.42468704 -30.66394385 111.7241667 -29.43359375 111.0234375 C-27.11892115 109.70515747 -24.80267938 108.3897949 -22.48535156 107.07617188 C-20.06956748 105.69956217 -17.67003078 104.30009433 -15.2734375 102.890625 C-12.5 101.375 -12.5 101.375 -10.5 101.375 C-10.5 76.625 -10.5 51.875 -10.5 26.375 C-16.11 29.675 -21.72 32.975 -27.5 36.375 C-28.82 37.035 -30.14 37.695 -31.5 38.375 C-33.03423704 31.13458136 -34.29456896 23.41711792 -31.5 16.375 C-25.73101467 10.37074805 -17.79925562 6.96340969 -10.27075195 3.65161133 C-7.44703263 2.42310398 -7.44703263 2.42310398 -4.79760742 0.67456055 C-2.5 -0.625 -2.5 -0.625 0 0 Z " fill="#FDFEFE" transform="translate(213.5,76.625)"/>
<path d="M0 0 C0.83402344 0.44956055 1.66804688 0.89912109 2.52734375 1.36230469 C3.89209839 2.09175293 3.89209839 2.09175293 5.28442383 2.8359375 C6.77558716 3.69203613 6.77558716 3.69203613 8.296875 4.56542969 C9.9830896 5.53089722 9.9830896 5.53089722 11.70336914 6.51586914 C12.91560181 7.21455181 14.12775817 7.91336688 15.33984375 8.61230469 C16.59681706 9.33408897 17.85389856 10.05568485 19.11108398 10.77709961 C29.06956726 16.49777838 38.99371461 22.27726964 48.90625 28.07714844 C57.09614083 32.86842622 65.31183464 37.61513551 73.52734375 42.36230469 C70.52935814 45.59697337 67.42393194 47.89553701 63.65234375 50.17480469 C62.64429688 50.8 61.63625 51.42519531 60.59765625 52.06933594 C56.89721696 53.62766343 55.38518016 53.2939509 51.52734375 52.36230469 C48.87207031 51.10986328 48.87207031 51.10986328 46.16796875 49.51074219 C44.6358374 48.61452148 44.6358374 48.61452148 43.07275391 47.70019531 C41.98526855 47.05244141 40.8977832 46.4046875 39.77734375 45.73730469 C38.05065046 44.7278305 36.32395199 43.71836504 34.59695435 42.70941162 C30.33271555 40.21291889 26.08223643 37.69318599 21.83496094 35.16796875 C18.85094835 33.39390666 15.86065314 31.63085872 12.86657715 29.87384033 C11.17383726 28.87498759 9.48967397 27.86164627 7.80566406 26.84814453 C6.77795898 26.24437988 5.75025391 25.64061523 4.69140625 25.01855469 C3.7885791 24.48037109 2.88575195 23.9421875 1.95556641 23.38769531 C-0.36075619 22.1790092 -0.36075619 22.1790092 -2.57763672 22.58422852 C-5.93808329 23.96399445 -9.06701849 25.76346349 -12.22265625 27.54980469 C-12.99544922 27.98325195 -13.76824219 28.41669922 -14.56445312 28.86328125 C-23.38946126 33.83731372 -32.13733594 38.94660454 -40.87890625 44.06542969 C-41.81347656 44.60876953 -42.74804688 45.15210938 -43.7109375 45.71191406 C-45.56546154 46.82016924 -47.3966367 47.9683777 -49.203125 49.15332031 C-55.65221533 53.33221517 -55.65221533 53.33221517 -59.66796875 53.47949219 C-63.10235755 52.11147659 -66.23067363 50.45481182 -69.34765625 48.48730469 C-70.23710938 47.95943359 -70.23710938 47.95943359 -71.14453125 47.42089844 C-72.83984375 46.37011719 -72.83984375 46.37011719 -75.47265625 44.36230469 C-75.47265625 43.37230469 -75.47265625 42.38230469 -75.47265625 41.36230469 C-74.90160156 41.04181152 -74.33054688 40.72131836 -73.7421875 40.39111328 C-62.66786802 34.1695113 -51.62572303 27.89890058 -40.66015625 21.48730469 C-39.68715576 20.92124512 -38.71415527 20.35518555 -37.71166992 19.77197266 C-32.84226554 16.93561898 -27.98801121 14.07804524 -23.16490173 11.16378784 C-20.78888261 9.73176059 -18.4044663 8.31410342 -16.01870728 6.89837646 C-14.31677762 5.88120347 -12.62638087 4.84481281 -10.9362793 3.80810547 C-9.902854 3.19692871 -8.86942871 2.58575195 -7.8046875 1.95605469 C-6.89436768 1.40626953 -5.98404785 0.85648438 -5.04614258 0.29003906 C-2.47265625 -0.63769531 -2.47265625 -0.63769531 0 0 Z " fill="#FBFDFE" transform="translate(130.47265625,28.6376953125)"/>
<path d="M0 0 C3.53761923 1.33747942 6.76744207 2.90437839 10.046875 4.78515625 C11.43712891 5.58083008 11.43712891 5.58083008 12.85546875 6.39257812 C13.81066406 6.94365234 14.76585938 7.49472656 15.75 8.0625 C17.20599609 8.89491211 17.20599609 8.89491211 18.69140625 9.74414062 C25.85956743 13.85956743 25.85956743 13.85956743 27 15 C27.08790975 17.29151417 27.10694038 19.58572524 27.09765625 21.87890625 C27.0962413 22.5655687 27.09482635 23.25223114 27.09336853 23.95970154 C27.08775479 26.16067801 27.07520007 28.36155409 27.0625 30.5625 C27.05748676 32.05143083 27.05292355 33.54036324 27.04882812 35.02929688 C27.03778093 38.68623075 27.02050713 42.34310558 27 46 C23.46238077 44.66252058 20.23255793 43.09562161 16.953125 41.21484375 C16.02628906 40.68439453 15.09945312 40.15394531 14.14453125 39.60742188 C13.18933594 39.05634766 12.23414062 38.50527344 11.25 37.9375 C10.27933594 37.38255859 9.30867188 36.82761719 8.30859375 36.25585938 C1.14043257 32.14043257 1.14043257 32.14043257 0 31 C-0.08790975 28.70848583 -0.10694038 26.41427476 -0.09765625 24.12109375 C-0.0962413 23.4344313 -0.09482635 22.74776886 -0.09336853 22.04029846 C-0.08775479 19.83932199 -0.07520007 17.63844591 -0.0625 15.4375 C-0.05748676 13.94856917 -0.05292355 12.45963676 -0.04882812 10.97070312 C-0.03778093 7.31376925 -0.02050713 3.65689442 0 0 Z " fill="#1BA1FB" transform="translate(92,125)"/>
</svg>
