<?xml version="1.0" encoding="UTF-8"?>
<svg version="1.1" xmlns="http://www.w3.org/2000/svg" width="256" height="256">
<path d="M0 0 C84.48 0 168.96 0 256 0 C256 84.48 256 168.96 256 256 C171.52 256 87.04 256 0 256 C0 171.52 0 87.04 0 0 Z " fill="#19A0FB" transform="translate(0,0)"/>
<path d="M0 0 C3.46794061 1.38717625 6.36822015 2.67566638 9.5546875 4.50390625 C10.40998047 4.99318604 11.26527344 5.48246582 12.14648438 5.98657227 C13.04689453 6.50662842 13.94730469 7.02668457 14.875 7.5625 C16.2681543 8.36288696 16.2681543 8.36288696 17.68945312 9.17944336 C25.51813576 13.69064754 33.27626152 18.31200925 41 23 C41.87744873 23.42313477 42.75489746 23.84626953 43.65893555 24.28222656 C46 26 46 26 46.56762695 28.4519043 C46.54144287 29.39976807 46.51525879 30.34763184 46.48828125 31.32421875 C46.47216797 32.35224609 46.45605469 33.38027344 46.43945312 34.43945312 C46.39755859 35.51130859 46.35566406 36.58316406 46.3125 37.6875 C46.28994141 38.77095703 46.26738281 39.85441406 46.24414062 40.97070312 C46.1851579 43.64851905 46.10290307 46.32357027 46 49 C42.46255395 51.04564528 38.92452372 53.09027627 35.38598633 55.1340332 C34.18628732 55.82712481 32.98673882 56.520477 31.78735352 57.21411133 C30.62261612 57.8876651 29.45721003 58.56006393 28.29112244 59.23127747 C26.57906722 60.22313378 24.87747514 61.23297895 23.17602539 62.24291992 C20 64 20 64 17.18139648 65.0480957 C14.47540013 66.09406376 12.91528047 66.80730381 11 69 C9.74277322 74.27690479 9.83017488 79.43245353 9.9375 84.8125 C9.93442352 86.28321734 9.92730461 87.75393214 9.91601562 89.22460938 C9.89722194 92.81756463 9.93373628 96.40749187 10 100 C20.01502927 94.49466227 29.97014634 88.91586137 39.77905273 83.04931641 C44.89908199 80 44.89908199 80 46 80 C46 87.26 46 94.52 46 102 C44.33195312 102.95519531 42.66390625 103.91039062 40.9453125 104.89453125 C39.26815237 105.85781489 37.5910061 106.82112279 35.91415405 107.78494263 C34.72405589 108.46844673 33.53348535 109.151129 32.34243774 109.83297729 C26.30768129 113.28886777 20.29752431 116.76095363 14.44140625 120.515625 C13.22203369 121.29329224 13.22203369 121.29329224 11.97802734 122.08666992 C10.48244447 123.05030225 8.99647936 124.02907527 7.52197266 125.0246582 C5.51171875 126.31640625 5.51171875 126.31640625 2 128 C-1.71267383 126.88965698 -4.98959639 124.98501297 -8.359375 123.09375 C-9.38474365 122.51947266 -10.4101123 121.94519531 -11.46655273 121.35351562 C-12.55009033 120.74185547 -13.63362793 120.13019531 -14.75 119.5 C-15.86511963 118.87287109 -16.98023926 118.24574219 -18.12915039 117.59960938 C-36.96717279 106.97532829 -36.96717279 106.97532829 -42.98632812 103.12939453 C-45.04621814 101.89460106 -45.04621814 101.89460106 -47.66992188 101.08544922 C-50.95582534 99.74844645 -52.7240093 98.75081374 -55 96 C-56.71612232 89.60621387 -55.93149446 82.6620064 -55.625 76.125 C-55.57481223 74.27355684 -55.52918951 72.42198393 -55.48828125 70.5703125 C-55.38682003 66.0410837 -55.19140276 61.52986527 -55 57 C-48.73 57 -42.46 57 -36 57 C-36.22945312 58.84722656 -36.45890625 60.69445312 -36.6953125 62.59765625 C-37.2689239 70.26730348 -37.80253155 77.7101245 -35 85 C-28.13596586 92.3901521 -18.23455296 96.36741918 -9 100 C-6.91685146 82.48352189 -6.91685146 82.48352189 -11.91210938 66.46826172 C-16.50078391 62.73362182 -21.67432879 60.46231016 -27.27172852 58.63134766 C-28.1272229 58.31883057 -28.1272229 58.31883057 -29 58 C-29 57.67 -29 57.34 -29 57 C-19.43 57 -9.86 57 0 57 C0 55.68 0 54.36 0 53 C8.58 48.05 17.16 43.1 26 38 C22.54747064 35.23797651 19.68118387 33.10839826 15.91796875 30.984375 C14.52094727 30.19160156 14.52094727 30.19160156 13.09570312 29.3828125 C12.13599609 28.84398438 11.17628906 28.30515625 10.1875 27.75 C9.20845703 27.19570312 8.22941406 26.64140625 7.22070312 26.0703125 C4.81602036 24.70961396 2.40830709 23.35427348 0 22 C0 14.74 0 7.48 0 0 Z " fill="#FBFDFE" transform="translate(128,71)"/>
<path d="M0 0 C0.825 0.45375 1.65 0.9075 2.5 1.375 C3.79728279 1.84278618 3.79728279 1.84278618 5.12077332 2.32002258 C7.5 4.375 7.5 4.375 7.95144081 6.3717556 C8.11953415 9.13618759 8.11745327 11.86038428 8.06762695 14.62963867 C8.06835709 15.68346237 8.06908722 16.73728607 8.06983948 17.82304382 C8.06635025 21.31353863 8.02742387 24.80270647 7.98828125 28.29296875 C7.97895793 30.71006033 7.97183955 33.12716135 7.96684265 35.54426575 C7.94773528 41.911672 7.89860121 48.27850962 7.84332275 54.64569092 C7.79221148 61.14066881 7.76934592 67.63573842 7.74414062 74.13085938 C7.69048698 86.87914911 7.60608682 99.62704434 7.5 112.375 C6.7251123 112.81746567 5.95022461 113.25993134 5.15185547 113.71580505 C-14.69359783 125.04261763 -14.69359783 125.04261763 -34.5 136.4375 C-36.01980469 137.31438477 -36.01980469 137.31438477 -37.5703125 138.20898438 C-38.57835937 138.79099609 -39.58640625 139.37300781 -40.625 139.97265625 C-42.06359375 140.80240967 -42.06359375 140.80240967 -43.53125 141.64892578 C-45.64177263 142.87601419 -47.74524086 144.11527096 -49.84375 145.36279297 C-51.46796875 146.32596436 -51.46796875 146.32596436 -53.125 147.30859375 C-54.10726562 147.89568115 -55.08953125 148.48276855 -56.1015625 149.08764648 C-58.5 150.375 -58.5 150.375 -60.5 150.375 C-60.88150002 147.04488859 -61.10927788 143.72034872 -61.3125 140.375 C-61.42142578 139.44042969 -61.53035156 138.50585938 -61.64257812 137.54296875 C-61.78532399 134.4025598 -61.65014888 132.31279623 -60.5 129.375 C-57.12718678 126.36572354 -53.3914945 124.35564254 -49.38375854 122.33959961 C-46.91361898 121.07473705 -44.53028983 119.68082661 -42.1363678 118.27844238 C-39.14941335 116.53114719 -36.134757 114.83260615 -33.125 113.125 C-31.89441293 112.42468704 -30.66394385 111.7241667 -29.43359375 111.0234375 C-27.11892115 109.70515747 -24.80267938 108.3897949 -22.48535156 107.07617188 C-20.06956748 105.69956217 -17.67003078 104.30009433 -15.2734375 102.890625 C-12.5 101.375 -12.5 101.375 -10.5 101.375 C-10.5 76.625 -10.5 51.875 -10.5 26.375 C-16.11 29.675 -21.72 32.975 -27.5 36.375 C-28.82 37.035 -30.14 37.695 -31.5 38.375 C-33.03423704 31.13458136 -34.29456896 23.41711792 -31.5 16.375 C-25.73101467 10.37074805 -17.79925562 6.96340969 -10.27075195 3.65161133 C-7.44703263 2.42310398 -7.44703263 2.42310398 -4.79760742 0.67456055 C-2.5 -0.625 -2.5 -0.625 0 0 Z " fill="#FDFEFE" transform="translate(213.5,76.625)"/>
<path d="M0 0 C15.10141158 7.4392825 15.10141158 7.4392825 18.52807617 13.11401367 C19.06346241 17.05037723 18.80037281 18.66934761 16.68823242 22.06713867 C13.30114471 24.50266997 9.52354544 26.23395567 5.77734375 28.04541016 C1.5173868 30.18839271 1.5173868 30.18839271 -1.11694336 33.96020508 C-1.81563276 38.41474517 -1.21035811 42.66228312 -0.31176758 47.06713867 C1.27764648 46.09260742 1.27764648 46.09260742 2.89916992 45.09838867 C4.28705017 44.25440744 5.67507871 43.41067004 7.06323242 42.56713867 C7.7619043 42.13788086 8.46057617 41.70862305 9.18041992 41.26635742 C14.46166992 38.06713867 14.46166992 38.06713867 16.68823242 38.06713867 C16.68823242 41.69713867 16.68823242 45.32713867 16.68823242 49.06713867 C13.30211222 51.10599619 9.90600681 53.12323934 6.50073242 55.12963867 C5.54102539 55.71036133 4.58131836 56.29108398 3.5925293 56.8894043 C2.66118164 57.4340332 1.72983398 57.97866211 0.77026367 58.53979492 C-0.51013794 59.30175171 -0.51013794 59.30175171 -1.81640625 60.07910156 C-6.52199184 61.9422759 -10.56114496 59.73049278 -15.01489258 57.85620117 C-28.39346919 51.68864997 -28.39346919 51.68864997 -33.31176758 46.06713867 C-35.96935305 38.23003354 -34.97104565 29.84086355 -33.80615234 21.77758789 C-34.01372996 19.02573039 -34.01372996 19.02573039 -35.87667847 17.81866455 C-37.63722527 16.80677068 -39.47277262 15.92827269 -41.31176758 15.06713867 C-44.48582455 35.3322628 -44.48582455 35.3322628 -39.16870117 54.03198242 C-33.90827448 58.45108077 -27.920204 61.1393067 -21.44482422 63.33154297 C-19.31176758 64.06713867 -19.31176758 64.06713867 -18.31176758 65.06713867 C-18.23971246 66.75322833 -18.2279069 68.44214526 -18.24926758 70.12963867 C-18.25829102 71.04874023 -18.26731445 71.9678418 -18.27661133 72.91479492 C-18.28821289 73.62506836 -18.29981445 74.3353418 -18.31176758 75.06713867 C-23.59923374 73.57068598 -27.90249336 71.13802081 -32.56176758 68.31713867 C-33.68131836 67.64823608 -33.68131836 67.64823608 -34.82348633 66.96582031 C-36.30739116 66.07840279 -37.78985517 65.1885708 -39.27075195 64.29614258 C-41.04590933 63.22722604 -42.8267869 62.16782033 -44.60864258 61.11010742 C-51.15963235 57.2192739 -51.15963235 57.2192739 -52.31176758 56.06713867 C-52.40529921 54.37911882 -52.42921549 52.6871866 -52.42529297 50.99658203 C-52.42521744 49.91553696 -52.42514191 48.83449188 -52.42506409 47.72068787 C-52.4199028 46.54466507 -52.41474152 45.36864227 -52.40942383 44.15698242 C-52.40800888 42.95981094 -52.40659393 41.76263947 -52.40513611 40.52919006 C-52.39951737 36.68764801 -52.38696169 32.84616325 -52.37426758 29.00463867 C-52.36925499 26.4076343 -52.36469167 23.81062902 -52.3605957 21.21362305 C-52.34954185 14.83144189 -52.3327855 8.44929437 -52.31176758 2.06713867 C-47.08980714 -0.20197013 -47.08980714 -0.20197013 -43.66552734 0.98242188 C-42.78695068 1.52213623 -41.90837402 2.06185059 -41.00317383 2.61791992 C-40.01542969 3.21080811 -39.02768555 3.80369629 -38.01000977 4.41455078 C-36.97521484 5.06302979 -35.94041992 5.71150879 -34.87426758 6.37963867 C-33.80982422 7.02231689 -32.74538086 7.66499512 -31.64868164 8.32714844 C-26.91940412 11.18928542 -22.23158018 14.1168021 -17.54223633 17.04370117 C-16.85766357 17.46611084 -16.17309082 17.88852051 -15.46777344 18.32373047 C-14.22987723 19.09069652 -12.99962395 19.87018983 -11.77880859 20.6640625 C-8.73840417 22.57757915 -8.73840417 22.57757915 -5.24926758 22.98120117 C-2.74716322 21.80077291 -0.41522137 20.46006404 1.93823242 19.00463867 C3.50573242 18.03526367 5.07323242 17.06588867 6.68823242 16.06713867 C2.39823242 13.75713867 -1.89176758 11.44713867 -6.31176758 9.06713867 C-7.54926758 9.91276367 -8.78676758 10.75838867 -10.06176758 11.62963867 C-13.72059675 14.12983861 -13.72059675 14.12983861 -16.37426758 13.84838867 C-19.3009069 12.66829217 -21.74211409 10.87757636 -24.31176758 9.06713867 C-21.19354812 5.62871085 -17.9346344 3.48431987 -13.87426758 1.25463867 C-12.76180664 0.62944336 -11.6493457 0.00424805 -10.50317383 -0.63989258 C-6.34795758 -2.32334004 -4.07904765 -1.64600708 0 0 Z " fill="#F8FCFE" transform="translate(70.311767578125,37.932861328125)"/>
<path d="M0 0 C6.27 0 12.54 0 19 0 C19 16.5 19 33 19 50 C20.65 50.66 22.3 51.32 24 52 C25.80151584 52.94045234 27.58719208 53.91162563 29.359375 54.90625 C30.38530762 55.48084961 31.41124023 56.05544922 32.46826172 56.64746094 C33.55123535 57.25879883 34.63420898 57.87013672 35.75 58.5 C37.41506592 59.43634277 37.41506592 59.43634277 39.11376953 60.39160156 C61.65979714 73.10653143 61.65979714 73.10653143 69 78 C69.34057617 80.15478516 69.34057617 80.15478516 69.29296875 82.7890625 C69.28330078 83.73007813 69.27363281 84.67109375 69.26367188 85.640625 C69.23853516 86.62546875 69.21339844 87.6103125 69.1875 88.625 C69.16719727 90.11386719 69.16719727 90.11386719 69.14648438 91.6328125 C69.11105743 94.08908072 69.06166196 96.54427285 69 99 C64.89102713 97.7423893 61.34593014 96.22023808 57.640625 94.05078125 C56.6196875 93.4570874 55.59875 92.86339355 54.546875 92.25170898 C53.45890625 91.61177002 52.3709375 90.97183105 51.25 90.3125 C49.51699938 89.30236249 47.78399321 88.29223436 46.05065918 87.28266907 C44.24704435 86.23135699 42.44478505 85.1777468 40.64257812 84.12402344 C37.05616988 82.02967053 33.45947579 79.95352073 29.859375 77.8828125 C29.28076721 77.54990707 28.70215942 77.21700165 28.10601807 76.87400818 C25.3394589 75.28255664 22.57254454 73.69172291 19.80566406 72.10083008 C1.62091917 61.62091917 1.62091917 61.62091917 0 60 C-0.09386381 58.1281906 -0.11743804 56.2528194 -0.11352539 54.37866211 C-0.11344986 53.17749252 -0.11337433 51.97632294 -0.11329651 50.73875427 C-0.10813522 49.4314888 -0.10297394 48.12422333 -0.09765625 46.77734375 C-0.09579198 45.43355868 -0.09436812 44.08977293 -0.09336853 42.74598694 C-0.08954402 39.20317723 -0.07971432 35.6604083 -0.06866455 32.11761475 C-0.05844899 28.50484773 -0.0538706 24.89207416 -0.04882812 21.27929688 C-0.03809198 14.18617961 -0.02049572 7.09309675 0 0 Z " fill="#FAFDFE" transform="translate(36,128)"/>
<path d="M0 0 C3.88461437 1.55384575 7.17185557 3.13764688 10.76953125 5.203125 C11.89367432 5.84677002 13.01781738 6.49041504 14.17602539 7.15356445 C15.38825806 7.85224712 16.60041442 8.55106219 17.8125 9.25 C19.06947331 9.97178428 20.32655481 10.69338016 21.58374023 11.41479492 C31.54222351 17.13547369 41.46637086 22.91496496 51.37890625 28.71484375 C59.56879708 33.50612154 67.78449089 38.25283082 76 43 C73.00201439 46.23466868 69.89658819 48.53323233 66.125 50.8125 C65.11695313 51.43769531 64.10890625 52.06289062 63.0703125 52.70703125 C59.36987321 54.26535874 57.85783641 53.93164622 54 53 C51.34472656 51.74755859 51.34472656 51.74755859 48.640625 50.1484375 C47.61904297 49.55111816 46.59746094 48.95379883 45.54492188 48.33837891 C44.45759766 47.69046387 43.37027344 47.04254883 42.25 46.375 C40.52548899 45.36329016 38.80096887 44.35159547 37.07592773 43.34078979 C35.2748974 42.28397895 33.47620957 41.22326165 31.67773438 40.16210938 C26.21633787 36.94494296 20.72236377 33.78419961 15.22937012 30.62139893 C13.51957683 29.63627944 11.81105012 28.64896271 10.10253906 27.66162109 C9.06838867 27.06430176 8.03423828 26.46698242 6.96875 25.8515625 C6.05544922 25.32385254 5.14214844 24.79614258 4.20117188 24.25244141 C2.82011309 23.46663489 1.42121505 22.71060752 0 22 C0 14.74 0 7.48 0 0 Z " fill="#FBFDFE" transform="translate(128,28)"/>
<path d="M0 0 C2.10546875 1.3046875 2.10546875 1.3046875 3.10546875 2.3046875 C3.26665201 3.9174317 3.35983788 5.53703758 3.42529297 7.15649414 C3.48811966 8.70929832 3.48811966 8.70929832 3.55221558 10.29347229 C3.7024907 15.05670928 3.80986115 19.81988785 3.89501953 24.5847168 C3.95171837 27.0945316 4.03352076 29.60391203 4.14111328 32.11206055 C4.9909194 52.29029387 4.9909194 52.29029387 1.94845581 57.15447998 C-1.40832597 60.4335542 -5.54548663 61.7997848 -9.89453125 63.3046875 C-11.70492831 64.32358474 -13.49322801 65.38338578 -15.25 66.4921875 C-16.85964051 67.43146613 -18.47029452 68.36901041 -20.08203125 69.3046875 C-21.32823242 70.03751953 -21.32823242 70.03751953 -22.59960938 70.78515625 C-23.39173828 71.24535156 -24.18386719 71.70554687 -25 72.1796875 C-25.70278076 72.58960937 -26.40556152 72.99953125 -27.12963867 73.421875 C-28.89453125 74.3046875 -28.89453125 74.3046875 -30.89453125 74.3046875 C-30.89453125 70.6746875 -30.89453125 67.0446875 -30.89453125 63.3046875 C-29.65316406 62.61761719 -28.41179687 61.93054688 -27.1328125 61.22265625 C-25.49086018 60.31254553 -23.84893449 59.40238675 -22.20703125 58.4921875 C-21.39041016 58.04037109 -20.57378906 57.58855469 -19.73242188 57.12304688 C-18.53842773 56.46079102 -18.53842773 56.46079102 -17.3203125 55.78515625 C-16.59239502 55.38192139 -15.86447754 54.97868652 -15.11450195 54.56323242 C-14.01561646 53.94025269 -14.01561646 53.94025269 -12.89453125 53.3046875 C-11.98832031 52.92699219 -11.08210938 52.54929688 -10.1484375 52.16015625 C-7.49469069 50.39467123 -7.49469069 50.39467123 -7.3269043 46.65942383 C-7.3276946 45.15162369 -7.35587355 43.64367731 -7.40625 42.13671875 C-7.41332474 41.34190598 -7.42039948 40.5470932 -7.4276886 39.72819519 C-7.45567251 37.19023389 -7.51841285 34.65448143 -7.58203125 32.1171875 C-7.6071092 30.39651625 -7.62992326 28.6758104 -7.65039062 26.95507812 C-7.70551158 22.73743053 -7.79180713 18.52143343 -7.89453125 14.3046875 C-9.00828125 14.9646875 -10.12203125 15.6246875 -11.26953125 16.3046875 C-14.64453125 18.3046875 -14.64453125 18.3046875 -16.89453125 18.3046875 C-16.89453125 14.6746875 -16.89453125 11.0446875 -16.89453125 7.3046875 C-14.67721189 5.90648612 -12.44914971 4.53705392 -10.20703125 3.1796875 C-9.58119141 2.78136719 -8.95535156 2.38304687 -8.31054688 1.97265625 C-3.56905535 -0.85734393 -3.56905535 -0.85734393 0 0 Z " fill="#F4FAFE" transform="translate(107.89453125,38.6953125)"/>
<path d="M0 0 C2.83162265 1.07839234 5.32987427 2.50013694 7.95019531 4.02319336 C9.63628906 4.9996582 9.63628906 4.9996582 11.35644531 5.99584961 C11.93974609 6.33696777 12.52304688 6.67808594 13.12402344 7.02954102 C14.8810137 8.05702352 16.64171209 9.07787147 18.40332031 10.09741211 C21.66189751 11.99080914 24.90994272 13.90077408 28.15332031 15.82006836 C29.01505859 16.32473633 29.87679687 16.8294043 30.76464844 17.34936523 C32.59672387 18.44861049 34.38234359 19.62487717 36.15332031 20.82006836 C36.15332031 21.48006836 36.15332031 22.14006836 36.15332031 22.82006836 C31.27050781 26.14038086 31.27050781 26.14038086 29.15332031 26.82006836 C24.98149357 25.68209944 21.57773539 24.04225519 17.93066406 21.74584961 C16.97998047 21.16125977 16.02929688 20.57666992 15.04980469 19.97436523 C13.06906432 18.74146875 11.09251353 17.501817 9.12011719 16.25561523 C8.17072266 15.67489258 7.22132812 15.09416992 6.24316406 14.49584961 C5.38585693 13.95871338 4.5285498 13.42157715 3.64526367 12.86816406 C0.59761963 11.58634415 -0.73906046 11.79512551 -3.84667969 12.82006836 C-5.88617321 13.75885233 -5.88617321 13.75885233 -7.80761719 14.96459961 C-8.52691406 15.39450195 -9.24621094 15.8244043 -9.98730469 16.26733398 C-11.09332031 16.943125 -11.09332031 16.943125 -12.22167969 17.63256836 C-14.4031872 18.94494169 -16.58533685 20.25622904 -18.76831055 21.56616211 C-20.12918745 22.38719626 -21.48445855 23.21761222 -22.83325195 24.05834961 C-27.49603718 26.88882179 -27.49603718 26.88882179 -31.03417969 26.19506836 C-31.96230469 25.74131836 -32.89042969 25.28756836 -33.84667969 24.82006836 C-34.63042969 24.44881836 -35.41417969 24.07756836 -36.22167969 23.69506836 C-37.02605469 23.26194336 -37.02605469 23.26194336 -37.84667969 22.82006836 C-37.84667969 22.16006836 -37.84667969 21.50006836 -37.84667969 20.82006836 C-37.04037109 20.36156494 -36.2340625 19.90306152 -35.40332031 19.43066406 C-32.37586049 17.70804638 -29.34927383 15.98391343 -26.32324219 14.25878906 C-25.02019679 13.51633002 -23.71681883 12.77445429 -22.41308594 12.03320312 C-20.52546126 10.95983372 -18.63907576 9.88431471 -16.75292969 8.80834961 C-16.14296143 8.46192413 -15.53299316 8.11549866 -14.90454102 7.75857544 C-11.58359949 5.86070836 -8.36663571 3.86753888 -5.19042969 1.73803711 C-1.84667969 -0.17993164 -1.84667969 -0.17993164 0 0 Z " fill="#F8FCFE" transform="translate(64.8466796875,14.179931640625)"/>
<path d="M0 0 C2.00228303 0.65977808 4.00191567 1.32761362 6 2 C7.15628906 2.35964844 7.15628906 2.35964844 8.3359375 2.7265625 C10.95304629 3.87969473 12.27093237 4.681673 14 7 C14.70720382 12.41282927 14.45908566 17.5738625 14 23 C12.22821947 22.043419 10.45760924 21.08467012 8.6875 20.125 C7.70136719 19.59132813 6.71523438 19.05765625 5.69921875 18.5078125 C3 17 3 17 0 15 C-0.22137393 12.37302936 -0.28162025 9.99106036 -0.1875 7.375 C-0.17396484 6.66859375 -0.16042969 5.9621875 -0.14648438 5.234375 C-0.1111104 3.48925872 -0.05730221 1.74453392 0 0 Z " fill="#21A4FB" transform="translate(46,63)"/>
</svg>
