<?xml version="1.0" encoding="UTF-8"?>
<svg version="1.1" xmlns="http://www.w3.org/2000/svg" width="256" height="256">
<path d="M0 0 C0.81782959 0.44859375 1.63565918 0.8971875 2.47827148 1.359375 C3.29835693 1.80079834 4.11844238 2.24222168 4.96337891 2.69702148 C5.82809814 3.20305908 6.69281738 3.70909668 7.58374023 4.23046875 C8.55956055 4.79822021 9.53538086 5.36597168 10.54077148 5.95092773 C12.65665278 7.20078543 14.7672068 8.45969825 16.87280273 9.72680664 C21.85180712 12.71383435 26.749793 15.56378209 32.06030273 17.921875 C43.17698429 23.10211189 43.17698429 23.10211189 45.49926758 28.91503906 C47.11906421 35.81637562 47.17438595 42.72873942 44.47827148 49.359375 C40.77701487 54.03438833 35.3283165 56.07450911 29.94311523 58.27490234 C25.74894596 60.12023712 21.9324674 62.58039601 18.04077148 64.984375 C10.80152245 69.359375 10.80152245 69.359375 8.47827148 69.359375 C8.97327148 83.714375 8.97327148 83.714375 9.47827148 98.359375 C17.80261882 93.8395654 17.80261882 93.8395654 26.04077148 89.18359375 C26.93924805 88.66603516 27.83772461 88.14847656 28.76342773 87.61523438 C30.60521417 86.55123833 32.44633883 85.48609607 34.28686523 84.41992188 C35.1750293 83.90880859 36.06319336 83.39769531 36.97827148 82.87109375 C37.77233398 82.41178467 38.56639648 81.95247559 39.38452148 81.47924805 C41.47827148 80.359375 41.47827148 80.359375 44.47827148 79.359375 C45.39800165 86.96530764 46.21680514 94.82432599 44.47827148 102.359375 C40.9810095 106.61738724 37.08492159 108.14612143 32.06518555 110.19677734 C26.75461676 112.58342594 21.84369477 115.75000231 16.85327148 118.734375 C14.80016042 119.93239322 12.74555367 121.12785319 10.68920898 122.3203125 C8.05630466 123.85013311 5.50559978 125.33983301 3.02758789 127.11181641 C-0.34873585 128.76408746 -1.94119402 128.39796637 -5.52172852 127.359375 C-8.50341797 125.93579102 -8.50341797 125.93579102 -11.63500977 124.11328125 C-12.20247925 123.78635788 -12.76994873 123.45943451 -13.35461426 123.12260437 C-15.18637149 122.06441437 -17.01025634 120.99341793 -18.83422852 119.921875 C-20.09574349 119.18965745 -21.35770909 118.45821572 -22.62011719 117.72753906 C-26.26093766 115.61656902 -29.89197586 113.48931965 -33.52172852 111.359375 C-34.4640332 110.80813965 -35.40633789 110.2569043 -36.37719727 109.68896484 C-39.95835431 107.59371036 -43.53536951 105.49192276 -47.10375977 103.375 C-48.88606251 102.32395061 -50.67141963 101.27698715 -52.48413086 100.27929688 C-57.42264796 97.55753612 -57.42264796 97.55753612 -58.52172852 95.359375 C-58.61212758 93.6945686 -58.63928109 92.02614079 -58.63525391 90.35888672 C-58.63517838 89.31795868 -58.63510284 88.27703064 -58.63502502 87.20455933 C-58.62986374 86.07744537 -58.62470245 84.95033142 -58.61938477 83.7890625 C-58.61796982 82.63769806 -58.61655487 81.48633362 -58.61509705 80.30007935 C-58.60948567 76.61148514 -58.59693121 72.92295095 -58.58422852 69.234375 C-58.57921498 66.73828212 -58.57465182 64.2421883 -58.57055664 61.74609375 C-58.55951254 55.61716427 -58.54224025 49.48827982 -58.52172852 43.359375 C-63.80172852 40.389375 -69.08172852 37.419375 -74.52172852 34.359375 C-74.52172852 58.449375 -74.52172852 82.539375 -74.52172852 107.359375 C-72.54172852 108.019375 -70.56172852 108.679375 -68.52172852 109.359375 C-66.77184395 110.26566269 -65.04866757 111.22511264 -63.35375977 112.23046875 C-61.90271851 113.08427124 -61.90271851 113.08427124 -60.42236328 113.95532227 C-59.40327881 114.56303467 -58.38419434 115.17074707 -57.33422852 115.796875 C-55.19412721 117.06598769 -53.05349459 118.33420482 -50.91235352 119.6015625 C-49.84436523 120.23416992 -48.77637695 120.86677734 -47.67602539 121.51855469 C-44.72461936 123.24096966 -41.75096922 124.90928286 -38.75610352 126.5546875 C-37.44162231 127.28473999 -37.44162231 127.28473999 -36.10058594 128.02954102 C-34.45691199 128.93900764 -32.80622416 129.83594265 -31.14794922 130.71850586 C-25.83197502 133.6895246 -25.83197502 133.6895246 -24.49047852 136.5859375 C-24.53601328 140.62714815 -24.68235137 144.63965261 -24.95922852 148.671875 C-25.01143555 149.50783203 -25.06364258 150.34378906 -25.11743164 151.20507812 C-25.24640223 153.25688289 -25.38327872 155.30818806 -25.52172852 157.359375 C-31.6627874 155.73682098 -36.74425053 152.46207613 -42.14672852 149.234375 C-44.28787729 147.96873445 -46.42983941 146.70446912 -48.57250977 145.44140625 C-49.69866699 144.77705566 -50.82482422 144.11270508 -51.98510742 143.42822266 C-55.61908938 141.29483958 -59.27628107 139.20343275 -62.93969727 137.12109375 C-63.8661908 136.59421967 -63.8661908 136.59421967 -64.81140137 136.05670166 C-67.81065151 134.35240799 -70.81196275 132.65188044 -73.81518555 130.95458984 C-74.92104004 130.32633301 -76.02689453 129.69807617 -77.16625977 129.05078125 C-78.12894775 128.50623291 -79.09163574 127.96168457 -80.08349609 127.40063477 C-81.78542114 126.39021118 -81.78542114 126.39021118 -83.52172852 125.359375 C-84.4450296 125.01539673 -85.36833069 124.67141846 -86.3196106 124.3170166 C-89.89656842 122.70223035 -91.97346632 121.37118976 -94.52172852 118.359375 C-96.65513101 111.62035993 -95.96368202 104.10851481 -95.84985352 97.1328125 C-95.85432028 95.02160176 -95.86348985 92.91039622 -95.87713623 90.79922485 C-95.89978333 85.24341304 -95.85591409 79.69000829 -95.79888916 74.13452148 C-95.75402391 68.51799682 -95.77672405 62.90178082 -95.79125977 57.28515625 C-95.80304849 45.64208348 -95.80766447 33.9995946 -95.52172852 22.359375 C-95.50477432 21.6476136 -95.48782013 20.9358522 -95.47035217 20.20252228 C-95.41543066 18.35503966 -95.32697399 16.50863622 -95.2355957 14.66259766 C-95.18796082 13.68811676 -95.14032593 12.71363586 -95.09124756 11.70962524 C-94.52172852 9.359375 -94.52172852 9.359375 -92.75909424 7.64071655 C-88.45217645 5.05338386 -85.36904734 5.31053774 -80.52172852 6.359375 C-78.05004883 7.52001953 -78.05004883 7.52001953 -75.59985352 8.9921875 C-74.67060059 9.54318115 -73.74134766 10.0941748 -72.78393555 10.66186523 C-71.78990723 11.26329346 -70.79587891 11.86472168 -69.77172852 12.484375 C-67.6081273 13.77030769 -65.4440485 15.0554371 -63.27954102 16.33984375 C-62.16353516 17.0054834 -61.0475293 17.67112305 -59.89770508 18.35693359 C-54.50920463 21.55309216 -49.07843877 24.67489914 -43.64672852 27.796875 C-37.44778663 31.36302898 -31.24959499 34.92996762 -25.07351685 38.53559875 C-22.67679328 39.93446892 -20.27800887 41.32978392 -17.87908936 42.72488403 C-16.18260705 43.71346766 -14.48909584 44.70714429 -12.7956543 45.70092773 C-11.25627197 46.59533569 -11.25627197 46.59533569 -9.68579102 47.5078125 C-8.78296387 48.03552246 -7.88013672 48.56323242 -6.94995117 49.10693359 C-3.87216882 50.72515474 -3.87216882 50.72515474 -0.52172852 51.359375 C2.03964803 50.31723149 2.03964803 50.31723149 4.64624023 48.6484375 C6.10900391 47.77058594 6.10900391 47.77058594 7.60131836 46.875 C8.61258789 46.25109375 9.62385742 45.6271875 10.66577148 44.984375 C11.68864258 44.36820313 12.71151367 43.75203125 13.76538086 43.1171875 C18.36715618 40.56825538 18.36715618 40.56825538 22.47827148 37.359375 C21.91841553 37.03662598 21.35855957 36.71387695 20.78173828 36.38134766 C18.24248302 34.91672692 15.70411893 33.45056847 13.16577148 31.984375 C12.28469727 31.47648437 11.40362305 30.96859375 10.49584961 30.4453125 C9.64829102 29.95546875 8.80073242 29.465625 7.92749023 28.9609375 C6.75706177 28.28538818 6.75706177 28.28538818 5.56298828 27.59619141 C3.83502525 26.57102913 2.15001229 25.47386887 0.47827148 24.359375 C-5.36229397 24.60826273 -9.57323759 27.55948682 -14.31079102 30.65234375 C-17.13708623 32.38920799 -19.12230599 33.35672631 -22.46704102 33.37890625 C-26.46118877 32.04582113 -29.82775965 30.13173072 -33.39672852 27.921875 C-34.08508789 27.51388672 -34.77344727 27.10589844 -35.48266602 26.68554688 C-37.2022669 25.63979753 -38.86780594 24.50617882 -40.52172852 23.359375 C-40.52172852 22.699375 -40.52172852 22.039375 -40.52172852 21.359375 C-39.79695313 20.94163818 -39.07217773 20.52390137 -38.32543945 20.09350586 C-35.57432084 18.50765185 -32.82336469 16.92151644 -30.07250977 15.33520508 C-28.32132837 14.32547426 -26.56996853 13.31605293 -24.81860352 12.30664062 C-23.68422852 11.65244141 -22.54985352 10.99824219 -21.38110352 10.32421875 C-20.2422168 9.67308105 -19.10333008 9.02194336 -17.92993164 8.35107422 C-15.64922662 7.0182668 -13.39219193 5.64414404 -11.16040039 4.23095703 C-10.10916992 3.57337402 -9.05793945 2.91579102 -7.97485352 2.23828125 C-7.04318359 1.63701416 -6.11151367 1.03574707 -5.15161133 0.41625977 C-2.52172852 -0.640625 -2.52172852 -0.640625 0 0 Z M-37.52172852 55.359375 C-38.99424709 65.14784783 -40.5483904 75.75414391 -37.52172852 85.359375 C-31.4452745 92.56949581 -22.20051283 96.17215301 -13.52172852 99.359375 C-10.88660031 96.7242468 -11.2642927 95.50761563 -11.25610352 91.8359375 C-11.25352539 90.7325 -11.25094727 89.6290625 -11.24829102 88.4921875 C-11.25602539 87.33460938 -11.26375977 86.17703125 -11.27172852 84.984375 C-11.26399414 83.83453125 -11.25625977 82.6846875 -11.24829102 81.5 C-11.25086914 80.39398438 -11.25344727 79.28796875 -11.25610352 78.1484375 C-11.25835937 77.13475098 -11.26061523 76.12106445 -11.26293945 75.07666016 C-11.53618502 72.20758173 -11.85750548 70.70115458 -13.52172852 68.359375 C-15.87463823 66.62548253 -15.87463823 66.62548253 -18.71313477 65.125 C-19.73987305 64.55136719 -20.76661133 63.97773438 -21.82446289 63.38671875 C-22.90018555 62.80019531 -23.9759082 62.21367187 -25.08422852 61.609375 C-26.16381836 61.00738281 -27.2434082 60.40539062 -28.35571289 59.78515625 C-32.7151006 56.8725241 -32.7151006 56.8725241 -37.52172852 55.359375 Z " fill="#FAFEFD" transform="translate(130.521728515625,70.640625)"/>
<path d="M0 0 C2.78970421 1.2594074 4.95051116 2.71477515 7 5 C8.11442238 8.3933966 8.12962032 11.70755392 8.17553711 15.25952148 C8.21511032 16.29114914 8.25468353 17.32277679 8.29545593 18.38566589 C8.4129458 21.79768576 8.47528682 25.20748074 8.52734375 28.62109375 C8.55087984 29.79055101 8.57441593 30.96000828 8.59866524 32.16490364 C8.72116631 38.36021062 8.80099191 44.55439944 8.84643555 50.75073242 C8.89054949 55.86364358 9.00854337 60.9662562 9.19506836 66.07592773 C10.71413894 108.51266567 10.71413894 108.51266567 4.76077271 116.59857178 C-0.70016794 121.84718632 -6.86175413 124.24493966 -14.09451294 126.16995239 C-18.05971813 127.30274322 -20.96645166 129.07846887 -24.43359375 131.296875 C-27.51576654 133.07118365 -30.59939498 134.8429219 -33.68383789 136.61328125 C-38.58747006 139.4332285 -43.47585884 142.26948497 -48.3125 145.203125 C-49.10342041 145.68040039 -49.89434082 146.15767578 -50.70922852 146.64941406 C-52.15002818 147.52270252 -53.58581896 148.40433287 -55.01538086 149.29589844 C-56.63271242 150.27437462 -58.31226789 151.14868494 -60 152 C-60.99 151.67 -61.98 151.34 -63 151 C-63.41485306 145.67711609 -63.64973746 140.37469499 -63.52734375 135.03515625 C-63.50921631 134.15996338 -63.49108887 133.28477051 -63.47241211 132.38305664 C-62.88746091 129.43230283 -61.85888146 128.28314668 -59.625 126.3125 C-57.76770502 125.49993345 -55.88871197 124.73659767 -54 124 C-51.93732479 122.91100998 -49.91620148 121.76026595 -47.89038086 120.60424805 C-45.58698954 119.29082597 -43.26688249 118.01213795 -40.94140625 116.73828125 C-35.7768405 113.89118871 -30.66485076 110.95685489 -25.5625 108 C-24.75184082 107.53118408 -23.94118164 107.06236816 -23.10595703 106.5793457 C-20.01283308 104.783434 -16.97754787 102.98503191 -14 101 C-13.52007944 97.88809191 -13.52007944 97.88809191 -13.56762695 94.16357422 C-13.5574353 93.46102509 -13.54724365 92.75847595 -13.53674316 92.03463745 C-13.50650138 89.70790754 -13.49733061 87.3815885 -13.48828125 85.0546875 C-13.47144277 83.44327413 -13.45329366 81.83187395 -13.43388367 80.2204895 C-13.38628692 75.97577032 -13.35654043 71.73110463 -13.33044434 67.48620605 C-13.30068737 63.15606108 -13.25414047 58.82610068 -13.20898438 54.49609375 C-13.12284132 45.9974863 -13.05554531 37.49886223 -13 29 C-13.52956299 29.30292969 -14.05912598 29.60585937 -14.60473633 29.91796875 C-17.0036049 31.28529491 -19.40792919 32.64272891 -21.8125 34 C-22.64587891 34.47695312 -23.47925781 34.95390625 -24.33789062 35.4453125 C-25.14033203 35.89648438 -25.94277344 36.34765625 -26.76953125 36.8125 C-27.50792236 37.23144531 -28.24631348 37.65039062 -29.00708008 38.08203125 C-31 39 -31 39 -34 39 C-36.3592108 20.39974012 -36.3592108 20.39974012 -32.75341797 15.20361328 C-29.33271556 12.2398391 -25.28186315 10.57381396 -21.11328125 8.90771484 C-17.66602785 7.42702074 -14.56028783 5.40582026 -11.375 3.4375 C-4.17534722 -0.8671875 -4.17534722 -0.8671875 0 0 Z " fill="#FBFEFD" transform="translate(215,76)"/>
<path d="M0 0 C4.10431065 2.02707728 8.01327756 4.33389624 11.9375 6.6875 C13.09137514 7.36807358 14.24592823 8.04749891 15.40112305 8.72583008 C17.77640533 10.12266729 20.14798388 11.52548578 22.51660156 12.93359375 C26.77581959 15.4639507 31.05505903 17.95962362 35.3359375 20.453125 C37.31140494 21.60418477 39.28538038 22.75780919 41.2578125 23.9140625 C46.19073865 26.80259412 51.14117866 29.65147181 56.1328125 32.4375 C57.10951904 32.98510986 58.08622559 33.53271973 59.0925293 34.09692383 C60.94634117 35.13335945 62.80440424 36.16223881 64.66723633 37.18237305 C65.48732178 37.64168213 66.30740723 38.10099121 67.15234375 38.57421875 C68.2350354 39.17109497 68.2350354 39.17109497 69.33959961 39.7800293 C71 41 71 41 72 44 C69.09465435 45.70758253 66.17416582 47.38738354 63.25 49.0625 C62.425 49.54783203 61.6 50.03316406 60.75 50.53320312 C59.95078125 50.98759766 59.1515625 51.44199219 58.328125 51.91015625 C57.5949707 52.33433838 56.86181641 52.75852051 56.10644531 53.19555664 C53.548713 54.17234477 52.52836716 53.96430452 50 53 C47.37841474 51.65100041 44.81392913 50.26384988 42.25 48.8125 C41.08863525 48.16124146 41.08863525 48.16124146 39.90380859 47.49682617 C30.18731335 42.02117426 20.56970556 36.37264846 10.95019531 30.72900391 C5.97154802 27.81119688 0.98564825 24.90582341 -4 22 C-4.84820312 22.4846875 -5.69640625 22.969375 -6.5703125 23.46875 C-16.21354167 28.97916667 -25.85677083 34.48958333 -35.5 40 C-36.07830566 40.3307251 -36.65661133 40.6614502 -37.25244141 41.00219727 C-38.9869949 41.99257448 -40.72395886 42.97872608 -42.4609375 43.96484375 C-44.94540324 45.38225439 -47.40282961 46.83817016 -49.8515625 48.31640625 C-50.79902344 48.88004883 -50.79902344 48.88004883 -51.765625 49.45507812 C-53.52829676 50.50490469 -55.28390082 51.56657155 -57.0390625 52.62890625 C-60 54 -60 54 -62.15527344 53.84399414 C-64.12266193 52.94388005 -66.01228462 52.00909509 -67.890625 50.93359375 C-68.59960938 50.53076172 -69.30859375 50.12792969 -70.0390625 49.71289062 C-70.76867187 49.29201172 -71.49828125 48.87113281 -72.25 48.4375 C-72.99507812 48.01275391 -73.74015625 47.58800781 -74.5078125 47.15039062 C-76.34098961 46.10453958 -78.17082677 45.05283808 -80 44 C-78.83362179 40.50086536 -78.3198607 40.31968219 -75.22265625 38.609375 C-74.4121582 38.15481934 -73.60166016 37.70026367 -72.76660156 37.23193359 C-71.87424805 36.74289551 -70.98189453 36.25385742 -70.0625 35.75 C-68.14146612 34.67530273 -66.22091534 33.59974157 -64.30078125 32.5234375 C-63.27807129 31.95334961 -62.25536133 31.38326172 -61.20166016 30.79589844 C-55.68983586 27.70416598 -50.22109726 24.53807197 -44.75 21.375 C-43.65002686 20.73997559 -42.55005371 20.10495117 -41.41674805 19.45068359 C-35.0585678 15.77740608 -28.70738743 12.09258527 -22.375 8.375 C-21.73143555 7.99778809 -21.08787109 7.62057617 -20.42480469 7.23193359 C-19.81797852 6.87437988 -19.21115234 6.51682617 -18.5859375 6.1484375 C-17.9990918 5.80651367 -17.41224609 5.46458984 -16.80761719 5.11230469 C-15.51291146 4.31561651 -14.2504634 3.46556383 -13.01269531 2.58300781 C-8.30127559 -0.70029812 -5.74672915 -1.88761176 0 0 Z " fill="#F9FEFD" transform="translate(133,29)"/>
<path d="M0 0 C0.33 0 0.66 0 1 0 C1.88173084 13.46897395 2.07718015 26.83104621 1.87890625 40.32421875 C1.85452015 42.29245863 1.83068136 44.26070537 1.80735779 46.22895813 C1.74535916 51.33993503 1.67606715 56.45078629 1.60510254 61.56164551 C1.53364434 66.80471205 1.46929573 72.04786573 1.40429688 77.29101562 C1.276375 87.52743956 1.14072551 97.76374462 1 108 C1.99 108 2.98 108 4 108 C4.33 108.66 4.66 109.32 5 110 C5.99 110.33 6.98 110.66 8 111 C8 111.66 8 112.32 8 113 C5.0280615 111.87548273 2.66559313 110.77706209 0 109 C-0.32134339 105.99025374 -0.44777108 103.18162163 -0.44824219 100.16674805 C-0.46004013 99.25099503 -0.47183807 98.335242 -0.48399353 97.39173889 C-0.51942312 94.3483544 -0.53340202 91.30527366 -0.546875 88.26171875 C-0.56626554 86.14336595 -0.5868099 84.02502342 -0.60845947 81.9066925 C-0.65090851 77.45368307 -0.68351165 73.00074857 -0.70849609 68.54760742 C-0.74053203 62.86976757 -0.79012891 57.19226678 -0.84641647 51.51462078 C-0.88899378 47.13144916 -0.92532322 42.74824421 -0.9595108 38.36499977 C-0.97593325 36.27404676 -0.99348456 34.18310228 -1.01222992 32.09216881 C-1.10276985 21.3414986 -1.13773218 10.70451456 0 0 Z " fill="#E3FEFE" transform="translate(36,80)"/>
<path d="M0 0 C0.99 0.33 1.98 0.66 3 1 C1.68 1.33 0.36 1.66 -1 2 C-0.67 11.57 -0.34 21.14 0 31 C3.63 29.02 7.26 27.04 11 25 C12.88857482 24.02744051 14.78199062 23.06394665 16.6875 22.125 C17.51636719 21.71507812 18.34523437 21.30515625 19.19921875 20.8828125 C20.09060547 20.44582031 20.09060547 20.44582031 21 20 C21 20.66 21 21.32 21 22 C19.68 22.33 18.36 22.66 17 23 C17 23.66 17 24.32 17 25 C16.01 25 15.02 25 14 25 C14 25.66 14 26.32 14 27 C13.030625 27.391875 12.06125 27.78375 11.0625 28.1875 C6.52283104 30.12244087 2.27580864 32.54698506 -2 35 C-5.18427908 29.93172169 -4.11180705 24.17433552 -3.88842773 18.41796875 C-3.81250409 16.37511002 -3.76369116 14.33276967 -3.71679688 12.2890625 C-3.67232422 11.00515625 -3.62785156 9.72125 -3.58203125 8.3984375 C-3.54311768 7.21942871 -3.5042041 6.04041992 -3.46411133 4.82568359 C-3.31095459 3.89320801 -3.15779785 2.96073242 -3 2 C-2.01 1.34 -1.02 0.68 0 0 Z " fill="#E2FEFE" transform="translate(140,138)"/>
<path d="M0 0 C0.33 0 0.66 0 1 0 C1 24.42 1 48.84 1 74 C0.34 74 -0.32 74 -1 74 C-1 74.66 -1 75.32 -1 76 C-4.22791555 78.1519437 -5.28400809 78.20086443 -9 78 C-9.66 79.32 -10.32 80.64 -11 82 C-12.65 82 -14.3 82 -16 82 C-14.16902422 79.81711904 -12.78494592 78.90656949 -10.13092041 77.75352478 C-6.52629776 76.17634493 -3.89257067 74.68261532 -1 72 C0.76282687 66.53565739 0.54339069 61.25759061 0.390625 55.56640625 C0.39068139 53.96214446 0.39603143 52.35787492 0.40643311 50.75364685 C0.41957443 46.54848769 0.36120359 42.34729815 0.28753662 38.1428833 C0.22503001 33.84598577 0.23068104 29.54922538 0.23046875 25.25195312 C0.22007058 16.83329029 0.13407031 8.41759765 0 0 Z " fill="#E4FEFE" transform="translate(202,105)"/>
<path d="M0 0 C2.36525369 19.56004151 2.36525369 19.56004151 -1.27880859 24.85986328 C-4.71347195 27.84639362 -8.7608711 29.51543184 -12.96826172 31.15136719 C-16.14227585 32.47711498 -18.9025468 34.29346202 -21.8125 36.125 C-24.70703125 37.8828125 -24.70703125 37.8828125 -27 39 C-27.66 38.67 -28.32 38.34 -29 38 C-25.76175819 35.22436416 -22.93902299 33.5548775 -19 32 C-18.54625 31.505 -18.0925 31.01 -17.625 30.5 C-16 29 -16 29 -12.375 28 C-11.26125 27.67 -10.1475 27.34 -9 27 C-8.67 26.01 -8.34 25.02 -8 24 C-5.69 23.34 -3.38 22.68 -1 22 C-1 15.4 -1 8.8 -1 2 C-1.66 1.67 -2.32 1.34 -3 1 C-1 0 -1 0 0 0 Z " fill="#DAFEFF" transform="translate(175,150)"/>
<path d="M0 0 C0.99 0.33 1.98 0.66 3 1 C4.32575494 5.82181981 3.90062439 10.38832067 3.5625 15.3125 C3.51029297 16.14845703 3.45808594 16.98441406 3.40429688 17.84570312 C3.27532629 19.89750789 3.13844979 21.94881306 3 24 C-3.58928571 21.94642857 -3.58928571 21.94642857 -6 19 C-3.61435923 19.57584432 -1.33317216 20.22227595 1 21 C0.67 14.07 0.34 7.14 0 0 Z " fill="#DCFEFF" transform="translate(102,204)"/>
<path d="M0 0 C4.3531774 1.3432954 8.14665187 3.84722061 12.01513672 6.20361328 C12.88976562 6.72375 13.76439453 7.24388672 14.66552734 7.77978516 C16.8093082 9.05668195 18.94613582 10.34385806 21.07763672 11.64111328 C18.07763672 12.64111328 18.07763672 12.64111328 15.65966797 11.60205078 C14.74572266 11.07869141 13.83177734 10.55533203 12.89013672 10.01611328 C11.42833984 9.19046875 11.42833984 9.19046875 9.93701172 8.34814453 C6.81960997 6.48707272 3.79695791 4.52063387 0.83154297 2.42626953 C-1.4909475 1.38658003 -2.55858607 1.811227 -4.92236328 2.64111328 C-5.99486328 2.99173828 -7.06736328 3.34236328 -8.17236328 3.70361328 C-9.07986328 4.01298828 -9.98736328 4.32236328 -10.92236328 4.64111328 C-7.4817087 1.036618 -5.18059525 -0.92544703 0 0 Z " fill="#E0FEFF" transform="translate(130.92236328125,28.35888671875)"/>
<path d="M0 0 C-3.6208088 2.17373046 -7.24731235 4.33777229 -10.875 6.5 C-11.90753906 7.12003906 -12.94007813 7.74007812 -14.00390625 8.37890625 C-14.99003906 8.96542969 -15.97617188 9.55195313 -16.9921875 10.15625 C-17.90339355 10.70087891 -18.81459961 11.24550781 -19.75341797 11.80664062 C-22 13 -22 13 -24 13 C-24 12.01 -24 11.02 -24 10 C-23.48953125 9.79246094 -22.9790625 9.58492187 -22.453125 9.37109375 C-16.49127907 6.84470868 -11.08702345 3.73024079 -5.6015625 0.29296875 C-3 -1 -3 -1 0 0 Z " fill="#DDFEFF" transform="translate(212,195)"/>
<path d="M0 0 C4.53847198 1.34927545 8.31932246 3.19159348 12.375 5.625 C13.43460938 6.25664063 14.49421875 6.88828125 15.5859375 7.5390625 C16.38257812 8.02117187 17.17921875 8.50328125 18 9 C16.68 9.99 15.36 10.98 14 12 C13.34 11.67 12.68 11.34 12 11 C12 10.01 12 9.02 12 8 C11.34 8 10.68 8 10 8 C10 7.34 10 6.68 10 6 C8.9171875 5.8453125 8.9171875 5.8453125 7.8125 5.6875 C4.72206579 4.93206053 2.58256159 3.84468685 0 2 C0 1.34 0 0.68 0 0 Z " fill="#E4FEFE" transform="translate(96,105)"/>
<path d="M0 0 C4.04301175 1.48518799 7.61146256 3.42877998 11.3125 5.625 C12.38113281 6.25664062 13.44976562 6.88828125 14.55078125 7.5390625 C15.76314453 8.26222656 15.76314453 8.26222656 17 9 C16.01 9.495 16.01 9.495 15 10 C13.31791365 9.02616054 11.65261839 8.02304948 10 7 C7.80869466 6.30420546 7.80869466 6.30420546 6 6 C6 5.34 6 4.68 6 4 C5.01 4 4.02 4 3 4 C3 3.34 3 2.68 3 2 C2.01 1.67 1.02 1.34 0 1 C0 0.67 0 0.34 0 0 Z " fill="#DFFEFE" transform="translate(58,179)"/>
<path d="M0 0 C-2 1 -2 1 -4.625 1.3125 C-8.8526013 2.17367804 -12.23654699 3.9463391 -16 6 C-16 5.01 -16 4.02 -16 3 C-14 2 -12 1 -10 0 C-9.34 -0.433125 -8.68 -0.86625 -8 -1.3125 C-4.94967928 -2.36104775 -2.88982451 -1.18220094 0 0 Z " fill="#E1FEFF" transform="translate(133,94)"/>
<path d="M0 0 C4.04301175 1.48518799 7.61146256 3.42877998 11.3125 5.625 C12.38113281 6.25664063 13.44976562 6.88828125 14.55078125 7.5390625 C15.76314453 8.26222656 15.76314453 8.26222656 17 9 C16.01 9.495 16.01 9.495 15 10 C12.375 9.0625 12.375 9.0625 10 8 C10 7.34 10 6.68 10 6 C8.3603125 5.9071875 8.3603125 5.9071875 6.6875 5.8125 C3 5 3 5 1.0625 2.4375 C0.711875 1.633125 0.36125 0.82875 0 0 Z " fill="#DFFEFF" transform="translate(58,83)"/>
<path d="M0 0 C0.66 0.33 1.32 0.66 2 1 C0.26194659 2.36946622 -1.49091233 3.72015954 -3.25 5.0625 C-4.22453125 5.81660156 -5.1990625 6.57070313 -6.203125 7.34765625 C-9 9 -9 9 -11.359375 8.74609375 C-11.90078125 8.49988281 -12.4421875 8.25367188 -13 8 C-10.880788 6.63594382 -8.75551882 5.28368225 -6.625 3.9375 C-6.02171875 3.54755859 -5.4184375 3.15761719 -4.796875 2.75585938 C-3.23507443 1.77539568 -1.62007786 0.88083925 0 0 Z " fill="#E2FEFE" transform="translate(97,45)"/>
<path d="M0 0 C1.0209375 0.433125 1.0209375 0.433125 2.0625 0.875 C5.32893093 2.12597355 8.62846123 3.07447955 12 4 C12 4.99 12 5.98 12 7 C12.99 7.33 13.98 7.66 15 8 C14.01 8.495 14.01 8.495 13 9 C10.70539919 7.77896564 8.55906377 6.52037408 6.375 5.125 C5.76398437 4.74730469 5.15296875 4.36960937 4.5234375 3.98046875 C2.99375114 3.02100029 1.49395605 2.01420678 0 1 C0 0.67 0 0.34 0 0 Z " fill="#E2FEFF" transform="translate(57,104)"/>
<path d="M0 0 C0 0.66 0 1.32 0 2 C-1.63183107 3.05589069 -3.30792999 4.0436126 -5 5 C-7.00580329 6.32458708 -9.00715862 7.6559907 -11 9 C-10.32353508 6.2941403 -9.64282657 4.48483064 -7.37890625 2.77734375 C-2.59072581 0 -2.59072581 0 0 0 Z " fill="#E7FEFE" transform="translate(196,85)"/>
<path d="M0 0 C0 0.66 0 1.32 0 2 C-0.66 2 -1.32 2 -2 2 C-2.33 2.99 -2.66 3.98 -3 5 C-4.65 5.33 -6.3 5.66 -8 6 C-8.33 5.34 -8.66 4.68 -9 4 C-2.25 0 -2.25 0 0 0 Z " fill="#EAFEFF" transform="translate(137,119)"/>
<path d="M0 0 C0.66 0.33 1.32 0.66 2 1 C0.76265016 2.03613033 -0.49044637 3.05347802 -1.75 4.0625 C-2.79414063 4.91521484 -2.79414063 4.91521484 -3.859375 5.78515625 C-6 7 -6 7 -8.265625 6.68359375 C-8.83796875 6.45800781 -9.4103125 6.23242188 -10 6 C-8.3811004 4.96951963 -6.75467511 3.95085322 -5.125 2.9375 C-4.22007812 2.36902344 -3.31515625 1.80054688 -2.3828125 1.21484375 C-1.20332031 0.61349609 -1.20332031 0.61349609 0 0 Z " fill="#E2FEFF" transform="translate(175,192)"/>
<path d="M0 0 C3.96 1.98 7.92 3.96 12 6 C9 7 9 7 6.9921875 6.328125 C6.29351562 5.97234375 5.59484375 5.6165625 4.875 5.25 C4.17117187 4.90453125 3.46734375 4.5590625 2.7421875 4.203125 C1 3 1 3 0 0 Z " fill="#E1FEFF" transform="translate(76,93)"/>
<path d="M0 0 C2.9375 0.375 2.9375 0.375 6 1 C6.33 1.66 6.66 2.32 7 3 C7.99 3.33 8.98 3.66 10 4 C10 4.66 10 5.32 10 6 C6.40992874 4.66654496 3.20429093 3.1056769 0 1 C0 0.67 0 0.34 0 0 Z " fill="#E3FEFE" transform="translate(79,213)"/>
<path d="M0 0 C0.99 0.33 1.98 0.66 3 1 C3 1.66 3 2.32 3 3 C-2.2734375 6.22265625 -2.2734375 6.22265625 -4 7 C-4.66 6.67 -5.32 6.34 -6 6 C-4.6875 4.5 -4.6875 4.5 -3 3 C-2.01 3 -1.02 3 0 3 C0 2.01 0 1.02 0 0 Z " fill="#D6FEFF" transform="translate(202,70)"/>
<path d="M0 0 C-6.75 4 -6.75 4 -9 4 C-8 1 -8 1 -5.625 -0.25 C-3 -1 -3 -1 0 0 Z " fill="#E1FEFF" transform="translate(153,133)"/>
<path d="M0 0 C0.66 0.33 1.32 0.66 2 1 C-0.3125 3.0625 -0.3125 3.0625 -3 5 C-3.99 4.67 -4.98 4.34 -6 4 C-4.02 2.68 -2.04 1.36 0 0 Z " fill="#EBFDFE" transform="translate(168,153)"/>
<path d="M0 0 C0.99 0.33 1.98 0.66 3 1 C4.125 5.75 4.125 5.75 3 8 C2.34 8 1.68 8 1 8 C0.67 5.36 0.34 2.72 0 0 Z " fill="#E9FDFF" transform="translate(72,113)"/>
<path d="M0 0 C3.96 1.98 3.96 1.98 8 4 C8 4.33 8 4.66 8 5 C3.48279689 5.36625971 3.48279689 5.36625971 1.1875 3.625 C0 2 0 2 0 0 Z " fill="#E4FEFE" transform="translate(159,88)"/>
</svg>
